<svg width="46" height="44" viewBox="0 0 46 44" fill="none" xmlns="http://www.w3.org/2000/svg">
<g clip-path="url(#clip0)">
<path d="M19.7184 18.8651H20.2184V18.3651V15.4283C20.2184 13.5927 20.7679 12.1308 21.6948 11.1326C22.6182 10.1382 23.9576 9.55869 25.6328 9.55859C25.6329 9.55859 25.633 9.55859 25.6332 9.55859L28.8244 9.56397C28.8281 9.56805 28.8333 9.57687 28.8333 9.59173V13.5429C28.8333 13.5577 28.8282 13.5665 28.8245 13.5706L26.6763 13.5715C26.6763 13.5715 26.6762 13.5715 26.6761 13.5715C25.8886 13.5715 25.2574 13.7285 24.8583 14.2029C24.4783 14.6546 24.4194 15.2744 24.4194 15.8755V18.3651V18.8651H24.9194H28.6744C28.6784 18.8697 28.6835 18.8794 28.6835 18.8931C28.6835 18.8931 28.6835 18.8931 28.6835 18.8932L28.6819 23.1481V23.1483C28.6819 23.1633 28.6768 23.1721 28.6732 23.1761H24.9194H24.4194V23.6761V34.4132C24.4194 34.428 24.4142 34.4369 24.4106 34.4409H20.2271C20.2235 34.4369 20.2184 34.4282 20.2184 34.4132V23.6761V23.1761H19.7184H16.5088C16.5052 23.172 16.5 23.1632 16.5 23.1483V18.8932C16.5 18.8781 16.5052 18.8692 16.5088 18.8651H19.7184ZM28.8307 13.5706H28.8305C28.8306 13.5706 28.8307 13.5706 28.8307 13.5706Z" fill="white" stroke="white"/>
</g>
<path d="M44.8333 22C44.8333 33.8602 34.9232 43.5 22.6667 43.5C10.4102 43.5 0.5 33.8602 0.5 22C0.5 10.1398 10.4102 0.5 22.6667 0.5C34.9232 0.5 44.8333 10.1398 44.8333 22Z" stroke="white"/>
<defs>
<clipPath id="clip0">
<rect width="13.3333" height="25.8824" fill="white" transform="translate(16 9.05859)"/>
</clipPath>
</defs>
</svg>
