<svg width="983" height="357" viewBox="0 0 983 357" fill="none" xmlns="http://www.w3.org/2000/svg">
<path d="M417.425 191.114L417.536 191.417L416.94 193.273L416.682 193.632L416.274 193.7L415.599 193.526L415.09 193.32L414.524 192.973L414.265 192.554L414.692 192.122L415.354 192.092L415.808 191.901L416.769 191.289L417.425 191.114ZM423.423 183.176L423.596 183.274L423.743 183.503L423.571 183.82L423.201 183.9L422.785 183.841L422.469 183.731L422.261 183.692L422.109 183.711L421.804 183.795L420.764 183.721L419.727 183.506L418.766 183.553L417.95 184.25L417.457 185.177L417.171 185.574L416.746 185.919L415.36 186.614L414.995 186.706L414.462 186.508L414.299 186.064L414.306 184.867L414.121 184.274L413.748 183.613L413.283 183.269L412.804 183.634L412.643 184.192L412.581 184.697L412.352 185.034L411.702 185.088L410.464 184.878L409.862 184.681L409.302 184.381L408.822 183.991L408.613 183.56L408.36 183.21L407.179 182.899L406.352 182.239L405.819 182.207L404.993 182.282L404.559 182.248L404.194 182.114L403.92 181.842L403.686 181.535L403.419 181.354L403.043 181.451L402.633 181.984L402.4 182.63L402.028 183.124L401.195 183.195L398.135 182.821L396.605 183.044L395.652 183.868L395.109 183.823L392.775 184.003L389.021 184.983L387.891 185.061L386.78 185.001L385.719 184.354L385.248 183.114L384.896 181.763L384.197 180.79L383.614 180.583L383.113 180.628L382.618 180.758L382.041 180.801L381.488 180.665L380.176 180.169L380.532 179.152L380.459 179.028L380.233 178.798L380.175 178.752L380.19 178.763L379.843 178.332L379.797 178.253L379.755 178.115L379.712 177.5L380.129 176.932L380.911 176.502L382.724 176.142L382.977 176.054L383.242 175.759L383.877 174.843L384.233 174.54L384.601 174.4L384.99 174.308L385.387 174.149L385.723 173.905L386.648 172.931L388.249 171.816L388.643 171.507L389.021 171.256L389.243 171.163L389.675 171.08L389.765 170.966L389.809 170.828L389.901 170.706L390.31 170.488L390.313 170.475L390.99 170.114L391.272 169.843L391.514 169.542L391.806 169.272L392.249 169.091L392.604 169.068L393.338 169.132L393.688 169.091L394.926 168.146L395.457 168.148L395.87 168.296L396.082 168.422L396.254 168.548L397.095 168.649L400.075 168.512L398.399 170.452L398.546 170.579L399.576 170.676L399.773 170.756L400.521 171.418L400.713 171.514L400.987 171.588L401.469 171.668L401.763 171.761L402.299 172.131L403.493 172.685L403.869 172.785L404.473 172.683L406.195 171.305L407.024 170.223L407.54 169.854L409.877 168.775L412.056 168.159L412.84 169.165L413.417 170.107L413.678 170.424L413.788 170.481L413.833 169.962L413.992 169.873L414.27 169.883L414.982 170.193L415.329 170.298L415.591 170.324L415.722 170.242L416.011 170.206L416.436 170.233L417.814 170.633L418.105 170.776L418.326 170.993L418.563 171.335L419.621 172.564L419.833 172.66L420.079 172.729L420.703 172.814L421.231 172.733L421.983 172.692L423.213 173.042L424.803 173.329L425.248 173.29L425.535 172.988L425.797 172.789L426.169 173.017L426.683 173.655L426.871 173.787L427.175 173.814L428.54 174.163L428.912 174.443L428.941 174.591L428.949 174.753L428.928 175.102L428.834 175.65L428.761 176.175L428.822 176.579L429.051 177.253L429.083 177.387L429.085 177.398L427.884 177.451L427.44 177.55L425.687 178.371L425.445 178.674L425.287 179.22L424.906 180.038L424.209 180.626L421.931 181.609L421.783 182.023L421.971 182.461L422.467 182.765L423.229 183.067L423.423 183.176ZM396.96 186.22L397.556 186.536L397.997 187.247L398.36 188.044L398.811 188.526L399.525 188.924L401.002 189.449L401.092 189.516L401.195 189.568L401.394 189.592L401.525 189.552L401.816 189.352L401.955 189.284L402.627 189.13L402.959 189.183L403.161 189.454L402.984 189.91L401.765 190.633L401.336 190.989L401.397 191.741L402.557 192.8L402.505 193.694L402.224 194.047L401.859 194.163L400.975 194.179L399.728 194.463L399.339 194.433L399.031 194.191L398.967 193.871L398.84 193.622L398.34 193.601L398.046 193.779L397.684 194.083L397.311 194.278L396.979 194.135L396.936 193.397L398.061 191.893L397.941 191.045L397.638 190.839L396.935 190.711L396.589 190.555L396.29 190.191L395.639 188.977L395.495 188.508L395.524 188.025L395.678 187.511L396.133 186.603L396.96 186.22Z" fill="#DFEFFE" stroke="#808080" stroke-width="0.5" stroke-linecap="round" stroke-linejoin="round"/>
<path d="M403.316 125.783L403.404 125.808L403.009 126.931L402.029 127.516L399.854 128.053L396.133 130.416L395.047 130.638L393.751 130.589L392.665 130.833L392.206 131.931L392.129 133.653L391.836 134.156L390.923 134.451L388.299 134.707L387.489 135.118L384.885 137.013L383.736 138.164L382.966 139.573L382.346 140.36L381.551 140.813L380.691 141.167L379.12 142.224L374.855 144.349L374.301 145.121L374.783 146.081L375.755 146.515L379.468 146.867L379.471 146.87L379.476 146.871L379.482 146.876L380.465 147.383L380.905 147.724L381.29 148.149L381.934 149.178L382.333 149.493L382.796 149.511L382.497 150.211L382.256 150.59L380.97 152.05L380.895 152.217L380.858 152.434L380.924 152.775L380.932 153.232L381.022 153.388L381.113 153.495L381.839 153.582L381.934 153.819L381.811 154.233L381.734 154.418L381.231 155.322L381.182 155.501L381.19 155.697L381.248 155.896L381.419 156.135L381.946 156.739L382.481 157.508L382.601 158.16L382.654 160.353L382.462 161.035L382.461 161.04L382.137 160.739L380.964 160.324L379.973 160.546L379.245 163.66L377.783 165.112L375.876 166.088L373.143 167.01L370.652 168.637L365.797 169.932L365.217 170.178L364.696 170.551L363.59 171.741L362.961 172.216L362.256 172.4L361.445 172.145L361.113 171.889L360.841 171.58L360.359 170.883L360.068 170.586L359.403 170.215L359.093 169.978L358.066 168.621L357.47 168.148L356.629 168.078L356.218 167.863L355.889 167.565L355.537 167.323L355.061 167.277L354.205 167.516L353.784 167.714L353.41 167.98L352.739 168.717L352.333 169.483L352.148 170.364L352.133 171.446L352.314 173.007L352.205 173.405L351.827 173.6L350.227 173.714L349.284 174.264L349.273 174.871L350.332 176.392H350.335L350.898 178.042L351.154 178.564L351.84 179.614L352.126 180.168L352.294 180.817L352.099 182.249L351.252 182.373L350.237 182.043L349.546 182.117L349.655 182.981L351.571 184.444V185.135L350.582 185.521L349.271 185.484L346.902 184.881L345.997 184.494L346 184.486L346.139 184.104L346.515 182.943L346.466 182.516L346.294 182.272L345.918 181.464L346.47 178.783L346.538 178.583L346.694 178.287L346.84 178.069L347.214 177.652L347.324 177.399L347.28 177.137L347.185 176.88L347.132 176.644L346.965 176.457L346.689 176.233L346.635 175.997L347.132 175.762L346.892 175.61L346.63 175.533L346.346 175.516L346.05 175.544L346.349 174.491L346.601 174.086L347.265 173.831L347.254 173.623L347.09 173.416L346.851 173.322L346.598 173.446L346.321 173.686L346.06 173.849L345.855 173.742L345.865 173.524L346.297 173.172L346.395 172.921L346.265 172.645L345.783 172.303L345.473 171.57L344.987 171.536L343.876 171.718L344.298 171.121L344.396 170.823L344.147 170.697L343.745 170.811L343.378 171.02L343.008 171.122L342.6 170.916L342.949 170.53L342.889 170.133L342.597 169.773L342.241 169.491L342.052 169.437L341.865 169.463L341.681 169.455L341.506 169.309L341.481 169.18L341.53 168.836L341.506 168.707L341.234 168.231L341.092 168.077L340.802 167.884L340.1 167.58L339.92 167.464L339.726 167.238L339.42 166.737L339.184 166.477L338.788 166.231L338.215 166.014L337.635 165.926L337.206 166.073L337.12 165.564L337.042 165.367L336.928 165.37L336.695 165.518L336.555 165.441L336.489 165.225L336.453 164.527L336.368 164.229L336.158 163.972L334.823 162.929L335.063 162.839L335.873 162.537L336.141 162.258L336.404 161.981L336.888 160.799L337.372 159.617L337.731 159.27L338.097 158.923L339.003 158.585L339.905 158.247L340.234 157.765L340.562 157.287L340.728 157.094L340.901 156.903L341.172 156.827L341.444 156.752L342.008 156.689L342.575 156.626L343.048 156.427L343.523 156.232L343.978 155.968L344.427 155.704L344.651 155.515L344.879 155.327L344.982 155.157L345.088 154.986L345.292 153.575L345.5 152.165L345.489 151.921L345.478 151.675L345.44 151.5L345.404 151.327L345.366 151.273L345.33 151.219L345.269 151.181L345.203 151.141L345.081 151.009L344.96 150.879L344.926 150.756L344.889 150.632L344.95 150.528L345.01 150.424L345.119 150.345L345.228 150.27L345.836 150.015L346.444 149.762L346.692 149.696L346.939 149.631L347.186 149.713L347.429 149.796L347.563 149.488L347.696 149.179L348.017 148.91L348.341 148.639L349.057 148.252L349.775 147.866L349.991 147.826L350.201 147.789L350.592 147.911L350.981 148.029L351.175 148.006L351.366 147.982L351.874 147.705L352.384 147.427L352.578 147.381L352.778 147.334L353.559 147.458L354.346 147.579L354.498 147.501L354.653 147.427L354.637 147.273L354.62 147.119L354.4 146.775L354.182 146.434L354.135 146.277L354.085 146.118L354.258 145.729L354.427 145.34L354.778 145.123L355.126 144.906L355.876 144.703L356.626 144.501L357.967 143.604L359.305 142.705L359.679 142.333L360.057 141.962L360.279 141.813L360.505 141.663L362.282 141.243L364.058 140.823L365.526 140.775L366.993 140.73L367.543 140.531L368.087 140.333L368.489 139.931L368.891 139.531L369.07 139.3L369.25 139.069L369.454 138.928L369.658 138.788L370.395 138.557L371.131 138.328L372.224 137.642L373.322 136.953L373.652 136.621L373.987 136.291L374.883 134.977L375.773 133.664L375.963 133.497L376.153 133.331L376.377 133.22L376.606 133.111L376.845 133.038L377.083 132.966L377.3 132.87L377.515 132.773L377.683 132.614L377.849 132.453L377.949 132.191L378.041 131.928L378.367 131.317L378.694 130.703L379.254 130.288L379.822 129.873L381.108 129.4L382.391 128.927L382.584 128.96L382.78 128.991L383.022 129.139L383.262 129.283L383.473 129.486L383.682 129.686L383.782 129.881L383.877 130.078L383.97 130.36L384.062 130.641L384.266 130.817L384.466 130.992L384.745 131.086L385.02 131.18L385.332 131.216L385.646 131.254L386.055 131.086L386.468 130.919L386.748 130.476L387.028 130.035L387.272 129.486L387.512 128.938L387.818 128.449L388.127 127.958L388.497 127.583L388.863 127.208L389.002 127.006L389.145 126.805L389.251 126.524L389.358 126.246L389.549 126.029L389.736 125.813L390.052 125.802L390.365 125.791L390.978 125.936L391.588 126.079L392.086 126.017L392.584 125.956L393.08 125.74L393.575 125.523L394.468 124.902L395.361 124.282L395.936 123.821L397.106 123.091L397.942 122.993L398.78 123.288L402.474 125.54L403.316 125.783ZM350.467 155.021L351.304 154.122L352.64 153.092L353.637 152.669L353.367 152.432L353.555 152.154L353.285 151.811L352.922 151.612L353.324 151.022L353.227 150.542L352.253 150.013L351.444 149.92L350.822 149.55L349.933 149.558L348.536 150.753L348.325 151.692L347.639 153.134L347.715 153.197L348.161 152.973L348.208 153.343L348.396 153.673L349.052 154.306L349.475 153.937L349.498 154.056L349.346 154.346L349.674 154.847L350.467 155.021Z" fill="#DFEFFE" stroke="#808080" stroke-width="0.5" stroke-linecap="round" stroke-linejoin="round"/>
<path d="M382.795 149.512L382.965 149.519L383.864 149.227L387.09 147.65L387.986 147.535L388.484 147.8L388.928 148.305L390.406 150.473L390.656 151.08L390.705 151.706L390.316 153.528L390.362 154.045L390.689 154.45L391.113 154.393L391.625 154.185L392.219 154.136L392.725 154.315L393.198 154.608L393.631 154.985L393.994 155.411L394.475 155.798L395 155.845L396.132 155.7L397.385 155.894L397.973 156.124L398.515 156.488L398.994 156.716L399.977 156.829L400.398 157.12L401.065 158.072L401.479 158.311L401.738 157.739L401.683 157.118L401.556 156.587L401.626 156.177L402.171 155.925L402.797 155.969L403.096 156.327L403.42 157.442L403.672 157.857L404.008 158.163L404.36 158.141L404.643 157.574L405.302 156.855L407.104 158.175L407.694 157.743L407.836 156.715L407.602 151.598L407.765 151.22L408.126 151.297L409.394 152.308L410.532 152.726L411.431 152.576L412.158 151.929L413.034 150.318L413.41 149.322L413.525 148.729L413.427 148.183L412.687 147.373L412.422 146.878V146.872L412.419 146.869L412.942 145.728L413.261 145.399L413.843 145.199L414.42 145.274L414.755 145.671L414.894 146.25L414.896 146.87L414.411 148.54L414.434 148.901L414.684 148.98L414.839 148.737L414.948 148.413L415.07 148.249L415.353 148.348L415.495 148.826L415.743 148.923L415.955 148.764L415.974 148.138L416.143 148.011L416.363 148.088L416.573 148.253L419.045 151.387L419.467 152.266L419.619 153.244L419.553 154.508L419.692 155.756L420.378 156.039L422.468 155.734L423.105 156.184L423.508 156.672L423.963 156.878L424.75 156.475L425.319 156.041L425.931 155.699L426.574 155.614L427.246 155.952L427.548 156.521L427.673 157.327L427.72 158.171L427.962 159.717V160.296L427.782 160.824L427.423 161.527L428.222 161.321L428.071 161.8L427.442 164.256L427.242 164.416L427.123 164.473L426.964 164.533L426.567 164.595L424.986 164.65L424.553 164.722L424.091 164.678L420.641 163.969L419.918 164.027L419.284 163.987H418.708L418.402 164.065L417.302 164.51L416.428 164.137L413.703 164.755L413.361 165.188L413.031 165.39L412.173 166.065L412.061 166.234L412.086 166.436L412.402 166.79L412.818 167.53L412.059 168.164L409.88 168.78L407.543 169.859L407.027 170.228L406.198 171.309L404.476 172.688L403.872 172.79L403.496 172.689L402.302 172.135L401.766 171.765L401.472 171.673L400.99 171.592L400.716 171.518L400.524 171.423L399.776 170.76L399.579 170.68L398.549 170.583L398.402 170.457L400.078 168.516L397.098 168.653L396.257 168.552L396.085 168.426L395.873 168.3L395.459 168.152L394.929 168.15L393.691 169.095L393.341 169.136L392.607 169.073L392.252 169.095L391.808 169.276L391.517 169.546L391.275 169.848L390.993 170.118L390.316 170.479L390.374 170.233L390.601 169.243L389.594 168.747L387.185 168.273L386.772 167.82L386.708 167.313L386.956 166.94L387.481 166.891L388.397 167.568L388.915 167.732L388.967 167.188L388.75 166.929L383.945 162.318L383.115 161.701L383.031 161.613L382.965 161.514L382.459 161.044L382.46 161.04L382.652 160.358L382.599 158.165L382.479 157.513L381.944 156.744L381.417 156.139L381.245 155.9L381.188 155.702L381.18 155.506L381.229 155.327L381.731 154.422L381.809 154.238L381.931 153.824L381.837 153.587L381.11 153.5L381.019 153.393L380.929 153.237L380.921 152.779L380.856 152.438L380.893 152.221L380.967 152.055L382.253 150.595L382.494 150.216L382.795 149.512ZM385.301 160.963L384.876 161.056L385.184 161.665L385.211 161.69L385.649 162.071L386.42 162.955L386.863 163.316L387.386 163.42L387.343 162.915L387.002 162.203L386.637 161.697L386.026 161.229L385.301 160.963Z" fill="#DFEFFE" stroke="#808080" stroke-width="0.5" stroke-linecap="round" stroke-linejoin="round"/>
<path d="M452.971 166.363L453.188 166.405L453.19 166.406L453.329 166.999L452.523 167.904L451.274 168.506L448.802 169.283L446.542 170.488L444.644 170.9L443.721 171.235L443.092 172.055L442.785 174.012L442.017 174.312L441.048 173.936L440.569 173.933L440.365 174.421L440.33 174.855L440.207 175.272L439.954 175.633L439.548 175.907L438.503 175.958L436.647 174.876L435.631 174.761L434.872 174.441L434.001 173.578L433.125 172.924L432.344 173.224L432.254 173.706L432.254 173.71L432.818 174.515L432.823 174.521L432.82 175.045L432.643 175.523L432.649 175.85V175.853L432.88 176.118L434.021 176.819L434.023 176.82L434.138 177.062L434.297 177.399L434.3 177.405L434.273 178.089L433.99 178.829L433.454 179.452L432.834 179.563L432.12 179.336L430.564 178.562L430.177 178.439L428.985 178.486L428.65 178.393L428.653 178.386L428.777 178.119L429.082 178.043L429.532 178.009L429.913 177.901L430.019 177.605L430.013 177.601L429.771 177.435L429.29 177.389L429.089 177.398L429.087 177.387L429.054 177.253L428.826 176.579L428.765 176.174L428.838 175.649L428.932 175.102L428.952 174.753L428.944 174.591L428.916 174.443L428.544 174.162L427.178 173.813L426.875 173.786L426.687 173.655L426.172 173.017L425.801 172.788L425.539 172.987L425.252 173.29L424.807 173.328L423.217 173.042L421.986 172.692L421.235 172.733L420.707 172.814L420.082 172.728L419.837 172.659L419.625 172.564L418.566 171.335L418.33 170.992L418.109 170.776L417.818 170.633L416.44 170.232L416.015 170.206L415.725 170.242L415.594 170.323L415.333 170.297L414.986 170.192L414.274 169.882L413.996 169.873L413.837 169.962L413.792 170.481L413.682 170.423L413.421 170.107L412.844 169.164L412.06 168.159L412.819 167.526L412.402 166.785L412.086 166.431L412.062 166.229L412.174 166.06L413.031 165.385L413.362 165.183L413.704 164.75L416.429 164.133L417.303 164.505L418.403 164.06L418.709 163.982H419.285L419.919 164.022L420.642 163.964L424.092 164.673L424.554 164.717L424.986 164.646L426.568 164.591L426.965 164.528L427.124 164.468L427.243 164.411L427.442 164.251L428.071 161.796L428.223 161.316L429.738 160.924L430.707 160.808L430.906 160.672L431.208 159.895L431.347 159.681L431.828 159.351L432.179 159.554L432.933 160.559L433.484 160.852L434.229 161.039L435.631 161.154L435.768 161.243L435.841 161.365L435.855 161.516L435.811 161.695L435.806 162.372L436.282 162.581L436.935 162.619L437.444 162.787L438.574 164.282L439.391 165.041L440.411 165.421L441.544 165.537L444.939 165.276L445.954 165.511L446.069 166.375L445.998 166.865L446.335 166.822L447.555 166.099L449.504 165.333L449.926 165.577L450.291 166.009L450.824 166.33L452.376 166.247L452.971 166.363Z" fill="#DFEFFE" stroke="#808080" stroke-width="0.5" stroke-linecap="round" stroke-linejoin="round"/>
<path d="M345.995 184.494L345.162 184.136L344.561 184.052L340.277 184.616L339.753 184.799L338.837 185.245L338.22 185.315L336.694 185.089L336.108 185.134L334.645 185.463L334.635 185.453L334.627 185.446L334.313 184.929L334.398 184.682L334.508 184.473L334.872 183.36L334.978 183.153L335.088 182.996L335.212 182.85L335.351 182.647L335.322 182.584L335.207 182.579L327.315 184.238L321.327 184.126L320.604 184.026L320.506 183.916L320.351 183.691L320.239 183.456L320.133 182.658L320.206 182.196L320.313 181.795L323.424 175.74L323.353 175.37L323.104 175.388L322.635 175.513L322.194 175.558L322.051 175.449L321.992 175.297L322.165 174.207L322.198 173.509L322.259 173.359L322.381 173.272L322.532 173.216L322.875 173.147L324.322 172.937L324.673 172.623L324.734 171.439L326.773 172.348L329.876 173.73L329.92 173.656L329.963 173.582L330.124 173.442L330.287 173.303L330.486 173.311L330.684 173.321L330.786 173.217L330.88 173.114L330.954 172.987L331.027 172.86L331.149 172.789L331.273 172.719L331.424 172.742L331.577 172.765L332.104 172.986L332.627 173.208L332.981 173.254L333.333 173.296L333.61 173.155L333.892 173.014L333.975 172.821L334.054 172.629L333.798 172.515L333.546 172.4L333.866 171.955L334.187 171.507L334.212 171.408L334.239 171.31L334.126 171.146L334.012 170.983L333.923 170.801L333.835 170.622L333.789 170.433L333.74 170.245L333.753 170.061L333.764 169.879L333.435 169.812L333.1 169.745L332.972 169.684L332.847 169.623L332.738 169.507L332.629 169.388L332.542 169.115L332.456 168.835L332.322 167.603L332.191 166.37L332.237 166.144L332.289 165.917L332.362 165.843L332.436 165.767L332.518 165.712L332.605 165.659L332.692 165.491L332.775 165.325L332.793 165.183L332.81 165.04L332.774 164.709L332.741 164.38L332.744 164.218L332.75 164.055L332.805 164.084L332.866 164.112L332.989 164.153L333.114 164.194L333.171 164.228L333.231 164.26L333.376 163.913L333.52 163.568L333.885 163.355L334.252 163.141L334.821 162.93L336.155 163.973L336.365 164.23L336.45 164.528L336.486 165.227L336.552 165.443L336.692 165.519L336.925 165.372L337.039 165.368L337.117 165.566L337.203 166.075L337.632 165.928L338.212 166.015L338.785 166.232L339.181 166.478L339.417 166.739L339.723 167.24L339.917 167.466L340.097 167.582L340.799 167.886L341.089 168.079L341.231 168.232L341.503 168.709L341.527 168.838L341.478 169.182L341.503 169.311L341.678 169.457L341.862 169.464L342.049 169.439L342.238 169.493L342.594 169.774L342.886 170.135L342.946 170.531L342.598 170.917L343.005 171.124L343.375 171.022L343.742 170.812L344.144 170.699L344.393 170.825L344.295 171.122L343.873 171.72L344.984 171.538L345.47 171.572L345.78 172.305L346.262 172.647L346.392 172.923L346.294 173.174L345.862 173.526L345.852 173.743L346.057 173.85L346.318 173.687L346.595 173.447L346.848 173.324L347.087 173.417L347.251 173.625L347.262 173.833L346.598 174.088L346.346 174.493L346.047 175.546L346.343 175.518L346.626 175.535L346.887 175.612L347.127 175.764L346.63 175.998L346.684 176.235L346.961 176.458L347.127 176.645L347.18 176.882L347.275 177.138L347.319 177.401L347.209 177.654L346.835 178.07L346.689 178.289L346.533 178.585L346.465 178.785L345.914 181.466L346.289 182.274L346.461 182.518L346.51 182.945L346.134 184.105L345.995 184.487L345.995 184.494ZM334.58 195.228L334.647 194.93L334.655 194.483L334.794 194.228L334.876 194.021L334.912 193.855L334.835 193.743L334.704 193.651L334.234 193.395L334.112 193.296L334.059 193.182L334.079 193.064L334.291 192.955L334.454 192.972L334.593 193.041L334.7 193.156L334.785 193.272L334.879 193.26L334.973 193.104L335.055 192.144L335.035 191.873L334.998 191.715L334.913 191.436L334.696 190.913L334.639 190.809L334.623 190.781L334.541 190.621L334.439 190.351L334.402 190.188L334.394 189.996L334.418 189.776L334.528 189.456L334.937 188.828L336.062 187.561L342.228 186.539L343.456 187.291L343.628 187.699L343.712 188.145L343.671 188.57L343.456 188.926L342.857 189.009L340.941 188.753L340.407 188.899L339.473 189.591L339.133 189.683L338.534 188.773L338.12 188.49L337.778 189.025L337.834 189.287L338.302 189.606L338.392 189.827L338.337 190.424L338.376 190.698L338.507 190.99L340.826 193.706L340.915 194.351L339.794 194.749L339.191 193.958L338.789 192.701L338.253 191.704L337.703 191.381L337.522 191.608L337.616 192.152L337.871 192.78L338.46 193.846L338.453 194.254L338.134 194.81L338.034 194.869L337.758 194.91L337.668 194.956L337.48 195.393L337.486 195.434L337.483 195.579L337.426 195.867L337.249 196.056L336.895 195.902L336.193 194.93L335.76 194.652L334.865 195.329L334.58 195.228Z" fill="#DFEFFE" stroke="#808080" stroke-width="0.5" stroke-linecap="round" stroke-linejoin="round"/>
<path d="M334.644 185.464L333.572 185.705L333.021 186.032L333.702 186.671L334.88 187.299L335.811 187.604L336.061 187.562L334.936 188.829L334.528 189.457L334.418 189.777L334.393 189.997L334.401 190.189L334.438 190.352L334.54 190.622L334.622 190.782L334.638 190.81L334.696 190.914L334.912 191.437L334.998 191.716L335.034 191.874L335.054 192.145L334.973 193.105L334.878 193.26L334.784 193.272L334.699 193.157L334.592 193.042L334.454 192.973L334.29 192.956L334.078 193.065L334.058 193.183L334.111 193.297L334.234 193.396L334.703 193.652L334.834 193.744L334.911 193.855L334.875 194.022L334.793 194.229L334.654 194.484L334.646 194.931L334.579 195.229L334.512 195.205L334.207 195.186L333.935 195.81L333.671 200.483L333.527 201.178L333.176 201.748L332.541 202.314L331.417 202.923L331.061 203.356L331.152 203.534L331.339 203.899L331.344 203.908L330.823 204.111L329.205 204.476L327.897 204.58L326.605 204.501L324.453 203.847L320.511 203.744L311.511 201.765L310.275 201.742L309.296 202.01L306.845 203.498L304.739 203.779L304.218 204.211L304.4 205.491L304.31 205.594L304.201 205.679L304.079 205.733L303.948 205.758L303.27 205.679L302.87 205.721L300.88 204.223L299.782 203.396L299.409 203.024L299.14 202.544L299.196 200.541L299.282 200.313L299.433 200.04L299.792 199.971L300.59 199.95L300.811 199.923L301.047 199.841L301.162 199.709L301.219 199.532L301.241 199.187L301.233 199.024L301.171 198.725L301.127 198.579L301.09 198.379L301.078 198.122L301.107 197.697L301.161 197.496L301.213 197.373L301.427 197.193L301.835 196.936L302.653 196.569L303.22 196.392L303.931 196.257L304.136 196.243L304.54 196.149L304.642 195.921L303.93 193.215L303.489 192.612L298.928 191.888L298.308 191.821L298.049 191.903L297.808 191.873L297.624 191.796L297.196 191.561L297.016 191.571L296.832 191.615L296.41 191.637L296.108 191.604L294.033 191.118L293.721 190.67L293.599 190.709L293.48 190.726L293.125 190.84L292.209 189.977L292.168 189.823L292.16 189.584L292.242 189.393L292.221 188.996L292.091 188.815L291.907 188.703L291.702 188.676L291.535 188.681L291.404 188.71L290.9 188.927L290.737 188.972L290.529 189L290.304 188.988L290.002 188.925L289.88 188.798L289.795 188.65L289.676 187.34L289.696 187.184L289.765 187.051L289.904 186.981L290.398 186.841L290.532 186.748L290.61 186.654L290.724 186.39L290.741 185.715L290.022 184.965L289.936 184.731L289.949 184.519L290.01 184.349L290.034 184.144L289.944 184.017L289.814 183.914L289.273 183.692L289.065 183.567L288.975 183.418L288.914 183.268L288.542 181.753L288.481 181.262L288.436 179.887L288.444 179.69L288.473 179.505L288.526 179.331L288.755 178.885L288.906 178.459L288.935 178.056L288.877 177.778L288.775 177.498L288.571 177.128L288.436 176.941L288.293 176.855L288.138 176.867L287.443 176.994L286.842 177.018L286.416 176.964L285.991 176.864L284.897 176.594L281.578 176.488L281.369 176.358L285.4 169.7L286.139 168.132L285.563 167.257L285.322 166.743L285.278 166.608V166.113L285.343 165.584L285.351 165.294L285.339 165.078L285.285 164.943L285.191 164.831L285.047 164.733L282.665 164.181L282.301 164.01L282.142 163.913L281.92 163.685L281.773 163.434L281.708 163.298L281.663 163.137L281.214 159.018L281.545 158.652L281.765 158.19L284.987 157.079L284.998 156.978L285.424 157.072L286.509 157.311L289.568 157.155L292.138 157.027L295.979 156.831L298.795 156.688L302.155 156.518L304.296 156.408L307.712 156.232L311.08 156.062L311.381 156.134L311.681 156.204L312.236 156.451L312.789 156.695L313.077 156.783L313.366 156.868L313.619 156.838L313.872 156.805L314.634 156.377L315.396 155.947L315.73 155.763L316.066 155.58L316.227 156.002L316.383 156.423L316.417 156.443L316.447 156.463L316.54 156.628L316.632 156.791L317.212 157.441L317.794 158.088L317.928 158.352L318.061 158.614L318.164 159.186L318.271 159.759L318.442 160.002L318.619 160.245L318.776 160.135L318.935 160.023L319.104 159.954L319.27 159.889L319.431 159.909L319.594 159.932L319.738 160.089L319.877 160.245L320.059 159.913L320.241 159.582L320.522 159.559L320.805 159.535L320.857 159.85L320.906 160.163L320.908 160.196L320.912 160.229L320.878 160.365L320.846 160.502L320.971 160.538L321.098 160.573L321.137 160.603L321.173 160.633L320.871 160.822L320.565 161.012L320.455 161.059L320.34 161.106L320.448 161.156L320.555 161.205L320.621 161.275L320.682 161.345L320.79 161.518L320.898 161.69L320.896 162.113L320.89 162.532L320.763 163.028L320.632 163.525L320.436 164.007L320.243 164.49L320.038 164.874L319.837 165.256L319.694 165.45L319.545 165.643L319.351 165.829L319.156 166.015L318.94 166.161L318.721 166.31L318.258 166.488L317.796 166.665L317.679 166.756L317.559 166.848L317.518 166.963L317.476 167.079L317.563 167.131L317.649 167.184L318.172 167.28L318.692 167.375L319.092 167.568L319.494 167.759L320.699 168.774L321.902 169.786L322.784 170.377L323.672 170.97L324.736 171.444L324.675 172.628L324.324 172.943L322.877 173.153L322.534 173.222L322.383 173.278L322.261 173.365L322.2 173.514L322.167 174.213L321.994 175.303L322.053 175.455L322.196 175.564L322.637 175.519L323.106 175.394L323.355 175.375L323.426 175.745L320.315 181.801L320.208 182.201L320.135 182.663L320.241 183.462L320.353 183.697L320.508 183.922L320.606 184.032L321.329 184.132L327.317 184.243L335.209 182.585L335.325 182.59L335.353 182.653L335.215 182.855L335.091 183.002L334.981 183.158L334.874 183.366L334.51 184.479L334.4 184.687L334.315 184.934L334.629 185.451L334.637 185.459L334.644 185.464Z" fill="#DFEFFE" stroke="#808080" stroke-width="0.5" stroke-linecap="round" stroke-linejoin="round"/>
<path d="M302.871 205.72L302.629 205.983L302.3 207.094L302.126 208.254L302.097 209.318L301.763 210.287L301.564 211.243L301.39 211.296L301.154 211.234L300.873 211.313L300.822 211.351L294.526 210.005L293.124 209.949L293.116 210.096L293.157 210.38L293.161 210.524L293.141 210.669L293.083 210.819L292.985 210.943L292.859 211.04L292.716 211.1L292.397 211.158L289.487 211.255L289.11 211.189L288.918 211.126L288.746 211.045L288.6 210.947L288.498 210.777L288.461 210.543L288.506 210.103L288.673 209.302L288.575 208.901L288.048 208.047L287.484 207.974L285.245 207.598L283.172 207.312L282.825 207.315L282.351 207.433L281.941 207.627L281.725 207.781L281.557 207.933L280.704 209.04L280.454 209.245L278.484 209.92L278.272 209.936L277.929 209.859L277.507 209.675L275.95 208.617L275.276 208.256L274.778 208.282L270.977 209.027L270.846 209.033L268.332 210.087L267.78 210.394L267.368 210.512L266.427 210.514L264.665 210.112L264.494 210.004L264.374 209.827L264.314 209.496L264.292 209.28L264.29 209.088L264.325 208.634L264.317 208.19L264.235 208.014L264.158 207.88L263.492 207.447L262.711 206.988L261.333 205.849L261.047 205.512L260.904 205.301V205.295L260.892 205.28L260.83 205.132L260.577 204.192L260.512 204.067L260.422 203.951L260.304 203.853L260.169 203.78L259.997 203.729L259.747 203.694L258.918 203.669L258.632 203.712L258.411 203.841L258.357 203.984L258.332 204.139L258.354 204.577L258.346 204.723L258.308 204.87L258.219 204.998L258.1 205.107L257.549 205.45L256.98 205.704L256.673 205.789L245.426 205.546L244.02 203.169L243.698 202.312L243.722 202.137L244.498 200.649L244.567 200.418L244.628 200.149L244.652 199.723L244.62 199.497L243.824 197.06L243.594 196.788L243.402 196.602L242.879 196.206L242.094 195.451L241.894 195.085L241.938 194.944L242.058 194.837L242.224 194.759L242.463 194.707L243.763 194.554L245.349 194.201L245.548 194.079L245.769 193.907L245.867 193.405L245.932 193.23L246.071 193.025L246.234 192.961L246.426 192.974L247.314 193.404L248.099 193.698L248.834 193.794L249.585 193.785L249.929 193.694L250.158 193.558L250.329 193.21L250.778 191.706L250.852 191.533L251.27 190.77L251.368 190.531L251.388 190.374L251.355 190.239L251.245 190.129L251.099 190.055L250.921 190.011L250.742 189.99L250.652 189.886L250.672 189.695L251.347 188.839L251.433 188.701L251.482 188.603L251.531 188.469L251.568 188.319L251.616 187.728L251.615 187.368L251.635 187.216L251.708 187.029L251.867 186.753L252.022 186.61L252.193 186.537L252.577 186.557L254.981 187.47L255.503 187.556L255.591 187.593L255.856 187.636L256.533 188.441L256.945 188.812L258.014 189.137L258.513 189.472L259.028 189.698L259.579 189.542L260.723 190.162L261.837 190.357L267.519 189.324L267.812 189.192L269.512 187.852L269.749 187.607L269.884 187.366L269.888 187.137L269.818 186.952L269.663 186.778L269.471 186.695L269.222 186.662L268.989 186.672L268.489 186.749L268.298 186.734L268.183 186.68L268.134 186.523L268.188 186.299L268.871 184.937L269.075 184.275L269.238 183.896L269.467 183.525L270.126 182.721L270.257 182.518L270.289 182.239L269.883 181.949L269.789 181.803L269.724 181.587L269.756 181.399L270.111 180.74L270.296 180.103L270.201 179.057L269.915 178.364L269.923 178.146L270.054 177.971L270.565 177.761L270.757 177.61L270.966 177.27L270.982 177.045L270.864 176.809L270.68 176.555L270.447 176.044L270.455 175.564L270.532 175.102L270.871 174.303L271.087 173.933L271.328 173.599L271.634 173.303L271.958 173.099L272.306 173L272.677 173.039L273.069 173.2L273.614 173.546L274.092 173.774L274.559 173.934L274.987 173.987L275.51 173.926L276.126 173.686L278.028 172.585L278.277 172.5L278.51 172.529L278.809 172.667L279.549 173.222L280.447 174.102L280.521 174.222L280.559 174.352L280.537 174.629L280.381 175.094L280.377 175.225L280.406 175.331L280.463 175.457L280.553 175.593L280.853 175.93L281.367 176.359L281.576 176.489L284.896 176.595L285.99 176.865L286.415 176.965L286.841 177.019L287.441 176.995L288.136 176.868L288.292 176.856L288.435 176.942L288.569 177.129L288.773 177.499L288.875 177.779L288.933 178.057L288.904 178.46L288.753 178.886L288.525 179.332L288.471 179.506L288.443 179.691L288.435 179.888L288.479 181.263L288.54 181.753L288.912 183.269L288.973 183.419L289.063 183.568L289.272 183.693L289.812 183.915L289.943 184.018L290.033 184.144L290.008 184.35L289.947 184.52L289.935 184.732L290.02 184.966L290.739 185.716L290.723 186.391L290.608 186.655L290.531 186.749L290.396 186.842L289.902 186.981L289.764 187.052L289.694 187.185L289.674 187.341L289.793 188.651L289.878 188.799L290.001 188.926L290.303 188.989L290.527 189.001L290.735 188.973L290.899 188.927L291.402 188.711L291.533 188.682L291.701 188.677L291.905 188.704L292.089 188.816L292.22 188.997L292.24 189.394L292.158 189.585L292.166 189.824L292.207 189.978L293.123 190.841L293.478 190.727L293.597 190.71L293.719 190.671L294.031 191.119L296.107 191.604L296.409 191.638L296.83 191.616L297.014 191.572L297.194 191.562L297.622 191.797L297.806 191.874L298.047 191.904L298.306 191.822L298.926 191.889L303.487 192.613L303.928 193.216L304.64 195.922L304.538 196.15L304.134 196.244L303.929 196.258L303.218 196.393L302.651 196.57L301.833 196.937L301.425 197.194L301.211 197.373L301.159 197.497L301.105 197.698L301.076 198.123L301.088 198.38L301.125 198.58L301.17 198.726L301.232 199.024L301.24 199.187L301.218 199.532L301.16 199.709L301.046 199.841L300.81 199.923L300.589 199.95L299.791 199.971L299.432 200.04L299.281 200.314L299.195 200.541L299.138 202.545L299.408 203.025L299.781 203.397L300.879 204.223L302.871 205.72Z" fill="#DFEFFE" stroke="#808080" stroke-width="0.5" stroke-linecap="round" stroke-linejoin="round"/>
<path d="M300.823 211.352L300.626 211.501L300.501 211.629L300.447 211.829L300.401 212.24L300.595 213.377L300.596 213.383L301.337 213.968L304.519 214.931L306.661 215L307.701 215.355L307.815 215.466L308.025 215.787L308.172 215.921L308.351 215.948L308.79 215.868L308.958 215.915L309.196 216.258L309.199 216.264L309.248 216.657L308.949 218.884L309.079 219.582L309.081 219.589L309.108 219.611L308.717 219.864L308.242 220.027L306.329 220.099L305.994 220.172L305.687 220.281L305.532 220.359L305.373 220.476L305.181 220.643L305.026 220.846L304.956 221.06L304.961 221.301L305.157 221.968L305.308 222.989L305.95 223.977L306.004 224.1L306.04 224.246L306.032 224.411L306.004 224.591L305.95 224.755L305.918 224.928L305.906 225.078V225.228L305.922 225.376L305.959 225.521L306.012 225.658L306.094 225.95L306.111 226.108V226.272L306.037 226.485L305.903 226.713L305.629 227.068L305.505 227.305L305.439 227.515L305.435 228.015L305.39 228.15L305.296 228.249L305.112 228.225L304.974 228.154L304.496 227.719L304.386 227.644L304.246 227.571L304.074 227.508L303.686 227.414L303.269 227.37L302.89 227.384L302.558 227.456L302.178 227.602L301.93 227.765L301.762 227.903L301.619 228.049L300.046 230.648L299.779 230.954L299.309 231.358L299.06 231.528L298.66 231.708L297.617 231.922L297.401 232.339L297.115 232.748L296.643 233.185L295.659 233.876L295.512 234.053L295.34 234.416L295.196 234.903L294.91 236.364L294.706 237.039L294.632 237.19L294.297 237.501L291.379 239.485L289.875 240.199L289.569 240.276L288.612 240.409L288.4 240.542L288.159 240.783L287.753 241.363L287.471 241.927L287.374 242.253L287.231 242.603L287.059 242.943L286.863 243.244L283.651 245.791L283.433 246.033L283.274 246.501L283.139 247.611L282.996 247.994L282.583 248.683L281.8 249.112L281.479 248.342L281.477 248.34L281.471 248.336L280.585 247.8L279.631 247.407L278.624 247.174L276.609 247.164L275.789 246.955L273.119 245.892L271.894 244.58L271.12 243.956L270.26 243.617L268.552 243.204L266.92 242.092L266.18 241.761L264.44 241.524L261.786 240.434L260.896 240.367L260.145 240.627L258.871 241.496L258.192 241.822L256.385 241.946L254.608 241.444L250.274 238.959L247.655 237.457L244.103 235.414L241.614 233.489L238.108 230.782L236.339 229.839L232.462 228.678L229.078 227.018L223.532 223.049L222.037 221.404L222.04 221.402L222.448 221.039L224.853 218.808L226.087 218.087L229.712 216.851L231.126 216.417L235.508 215.069L235.659 214.994L235.781 214.876L235.842 214.636L235.822 214.47L235.749 214.326L235.659 214.212L234.817 213.335L234.633 213.106L234.506 212.859L234.465 212.726L234.436 212.588V212.439L234.465 212.281L234.625 212.037L234.879 211.745L236.885 209.889L237.04 209.786L237.237 209.707L237.559 209.675L237.8 209.69L238.112 209.594L238.443 209.376L241.083 207.136L242.326 206.34L244.929 205.819L245.428 205.545L256.675 205.788L256.981 205.703L257.55 205.449L258.102 205.106L258.22 204.996L258.31 204.868L258.348 204.722L258.356 204.576L258.334 204.137L258.359 203.983L258.413 203.839L258.634 203.71L258.92 203.667L259.749 203.693L259.999 203.727L260.171 203.778L260.305 203.851L260.424 203.95L260.514 204.066L260.579 204.19L260.832 205.13L260.893 205.279L260.906 205.294V205.3L261.049 205.51L261.335 205.847L262.713 206.987L263.494 207.446L264.159 207.879L264.237 208.013L264.319 208.189L264.327 208.633L264.291 209.086L264.294 209.279L264.316 209.495L264.376 209.826L264.496 210.002L264.667 210.111L266.429 210.512L267.37 210.51L267.782 210.392L268.334 210.085L270.848 209.032L270.979 209.025L274.78 208.28L275.278 208.255L275.952 208.615L277.509 209.673L277.931 209.857L278.274 209.934L278.486 209.918L280.455 209.244L280.706 209.038L281.559 207.932L281.727 207.78L281.943 207.626L282.353 207.431L282.827 207.313L283.174 207.31L285.246 207.596L287.486 207.972L288.05 208.045L288.577 208.899L288.675 209.3L288.508 210.101L288.463 210.542L288.5 210.775L288.602 210.946L288.748 211.043L288.92 211.124L289.112 211.188L289.489 211.253L292.399 211.157L292.718 211.098L292.861 211.039L292.987 210.941L293.085 210.817L293.143 210.667L293.163 210.523L293.159 210.378L293.118 210.095L293.126 209.948L294.528 210.004L300.823 211.352Z" fill="#DFEFFE" stroke="#808080" stroke-width="0.5" stroke-linecap="round" stroke-linejoin="round"/>
<path d="M309.108 219.609L309.562 219.992L312.93 220.456L313.638 220.446L315.637 219.873L315.64 219.872V219.87H315.646L315.998 219.721L316.368 219.636L316.747 219.64L317.19 219.769L317.398 219.873L317.803 220.207L318.236 220.277L318.674 220.142L319.113 219.867L319.32 219.822L319.535 219.806L319.75 219.822L319.956 219.867H319.961L319.965 219.872L319.971 219.873L320.374 220.288L321.263 221.958L321.755 222.576L322.027 222.918L322.29 223.495L322.26 224.126L322.026 224.602L321.7 224.988L321.297 225.292L320.851 225.515L320.234 225.623L319.767 225.609L319.473 225.765L319.383 226.384L319.462 226.672L319.617 226.926L319.734 227.19L319.715 227.511L319.579 227.686L318.913 228.087L318.706 228.517L318.777 229.039L319.13 230.106L319.187 230.683L319.099 232.321L319.168 232.946L319.365 233.323L320.005 234.151L320.154 234.585L320.209 235.49L320.299 235.903L320.549 236.306L321.581 237.146L322.555 238.659L323.006 239.051L324.371 239.702L326.462 241.285L327.099 242.147L327.216 243.24L326.785 244.9L326.132 246.464L325.106 247.793L324.79 248.331L324.787 248.333V248.337L324.784 248.339L324.782 248.341L324.584 248.823L324.464 249.253L324.267 249.609L323.985 249.785L323.853 249.867L323.45 249.972L322.222 250.114L321.401 250.351L320.934 250.756L319.813 253.636L319.037 254.929L317.118 257.201L315.696 258.354L314.339 259.816L313.217 261.47L312.479 263.197L312.377 264.376L312.899 266.592L312.99 267.772L312.853 268.779L312.551 269.728L312.054 270.563L311.934 270.974L311.814 270.452L311.506 270.079L311.04 269.841L310.494 269.725L309.553 269.761L309.22 269.725L308.928 269.6L308.353 269.23L308.051 269.151L307.752 269.182L307.249 269.313L306.974 269.343L306.81 269.471L306.649 269.749L306.445 270.015L306.16 270.106L305.729 269.781L305.232 268.623L304.626 268.369L304.079 268.498L303.594 268.809L302.729 269.551L302.206 269.882L301.677 270.115L301.106 270.252L300.466 270.298L299.792 270.427L298.787 270.98L298.199 271.078L297.61 270.875L297.308 270.447L297.116 269.928L296.852 269.447L296.321 269.033L295.153 268.652L294.623 268.369L294.375 267.943L293.939 266.727L293.615 266.473L293.063 266.335L292.009 265.693L291.53 265.5L290.258 265.476L287.838 265.961L284.393 266.091L284.116 266.179L283.597 266.56L283.317 266.648L282.604 266.623L282.278 266.571L280.538 265.946L279.906 265.883L279.232 265.928L278.721 266.066L278.069 265.638L278.126 265.125L278.523 264.646L279.016 264.216L279.432 263.636L279.329 263.188L278.911 262.806L278.393 262.428L278.033 261.631L278.131 260.628L278.708 258.734L278.809 257.615L278.599 255.406L278.7 254.3L279.618 252.91L281.077 251.297L282.044 249.695L281.8 249.11L282.583 248.681L282.996 247.992L283.139 247.61L283.274 246.5L283.433 246.031L283.651 245.79L286.863 243.243L287.059 242.941L287.231 242.601L287.374 242.251L287.472 241.925L287.753 241.362L288.159 240.781L288.4 240.541L288.612 240.408L289.569 240.275L289.875 240.198L291.379 239.484L294.298 237.5L294.633 237.188L294.706 237.037L294.91 236.362L295.196 234.901L295.34 234.414L295.512 234.052L295.659 233.875L296.644 233.184L297.115 232.747L297.401 232.337L297.617 231.92L298.66 231.706L299.06 231.527L299.309 231.356L299.779 230.953L300.046 230.647L301.619 228.048L301.762 227.902L301.93 227.763L302.178 227.6L302.558 227.455L302.89 227.383L303.27 227.369L303.686 227.412L304.074 227.507L304.246 227.57L304.386 227.642L304.496 227.717L304.974 228.153L305.113 228.223L305.297 228.247L305.391 228.148L305.435 228.013L305.44 227.514L305.505 227.303L305.629 227.067L305.903 226.712L306.037 226.484L306.111 226.271V226.107L306.094 225.949L306.012 225.657L305.959 225.519L305.922 225.374L305.906 225.226V225.077L305.918 224.926L305.951 224.753L306.004 224.589L306.032 224.409L306.04 224.245L306.004 224.099L305.951 223.976L305.308 222.988L305.157 221.966L304.961 221.299L304.957 221.058L305.026 220.845L305.181 220.642L305.373 220.474L305.532 220.358L305.687 220.279L305.995 220.17L306.33 220.097L308.242 220.026L308.717 219.863L309.108 219.609Z" fill="#DFEFFE" stroke="#808080" stroke-width="0.5" stroke-linecap="round" stroke-linejoin="round"/>
<path d="M82.1082 29.261L83.8258 30.2429L88.3583 32.8343L93.2832 35.6422L98.4556 38.5892L103.745 41.595L109.015 44.5893L114.13 47.486L118.954 50.216L123.356 52.7025L127.194 54.8692L130.339 56.6408L132.65 57.943L134.292 58.8672L134.972 59.5167L135.448 60.3433L135.617 61.1003L135.788 62.713L136.044 63.4399L137.593 65.5536L140.615 68.3257L142.057 69.6502L143.503 70.9752L145.349 72.78L146.86 74.2634L148.376 75.7463L149.89 77.2271L151.403 78.7069L152.881 80.1534L154.362 81.6004L155.843 83.0449L157.321 84.4873L159.298 86.4084L159.831 86.6036L160.362 86.7988L160.42 86.79L163.235 90.8773L164.556 91.9131L171.68 93.5875L172.08 93.7869L172.076 94.0927L171.933 94.4463L164.76 105.92L158.007 116.923L156.556 119.802L155.964 126.057V126.427L156.041 126.716L159.046 131.409L159.566 132.343L159.456 132.504L159.14 132.789L153.48 135.498L152.907 135.908L152.923 136.304L153.132 136.711L164.425 149.885L171.913 158.707L171.933 159.113L165.982 161.536L164.592 161.922L164.196 161.811L163.825 161.632L163.717 161.538L160.57 157.285L156.087 153.083L154.533 152.073L153.344 151.458L152.07 150.997L147.038 149.965L145.611 149.962L145.093 150.063L144.613 150.267L144.209 150.54L143.789 150.969L142.742 152.679L142.281 152.978L141.611 153.033L140.985 152.825L140.815 152.739L140.413 152.569L140.102 151.704L139.767 151.273L138.369 149.952L137.872 149.704L136.347 149.454L135.753 149.251L134.94 148.626L133.994 147.721L133.685 147.551L133.356 147.432L132.686 147.313L126.446 142.526L125.593 141.702L124.914 140.674L124.466 139.514L124.167 139.022L123.752 138.819L122.49 138.786L121.938 138.667L121.481 138.411L121.111 138.01L120.373 136.882L120.083 136.117L119.371 135.188L119.159 134.716L119.175 133.363L119.084 132.744L118.71 132.484L117.408 132.363L116.086 132.075L115.804 131.946L115.242 131.576L114.815 131.641L114.659 131.718L114.157 132.095L112.812 132.897L112.269 133.091L111.554 133.114L111.141 133.184L110.961 133.305L110.884 133.442L110.925 133.576L110.978 133.71L111.284 134.22L111.337 134.551L111.023 135.22L110.713 135.513L110.109 134.728L109.334 134.161L106.565 133.272L105.198 133.313L104.822 133.17L104.531 132.745L104.572 132.348L104.868 132.053L105.334 131.938L105.342 131.94H105.35H105.358L106.92 131.424L106.838 130.239L106.321 128.763L106.563 127.37L106.996 127.102L107.535 126.913L107.968 126.645L108.058 126.141L107.736 125.749L107.126 125.44L105.958 125.051L105.035 124.342L104.303 123.37L103.473 122.596L102.278 122.482L101.102 122.604L98.815 122.428L93.2477 123.156L91.8864 123.122L91.2275 122.907L90.1768 121.945L89.5588 121.764L88.2165 121.639L87.4597 121.289L87.1113 120.752L86.7983 118.446L86.5477 117.868L86.1749 117.359L84.5006 115.876L83.8661 115.536L83.1938 115.597L82.4291 115.912L81.6699 116.089L80.8967 116.127L79.7237 115.948L77.8728 115.238L76.1087 113.848L70.4411 108.174L69.7987 107.86L69.3115 108.549L68.9521 111.126L68.394 112.008L67.3054 112.282L65.9527 112.21L64.6024 111.942L61.7601 110.964L61.1176 110.946L60.625 111.078L59.2283 111.805L58.2344 112.174L57.7551 112.482L57.51 112.925L57.6598 113.508L58.1524 113.884L61.452 115.202L62.3805 115.818L63.1916 116.875L63.894 118.285L65.8488 120.982L66.9105 122.049L67.21 122.285L67.3298 122.55L67.2375 122.796L66.9105 122.964L65.2173 123.182L64.787 123.089L64.4765 122.683L64.4844 122.215L64.6263 121.698L64.7161 121.147L64.4465 120.074L63.7687 119.302L62.8756 118.745L60.2594 117.695L59.6824 117.607L59.2062 117.675L58.2509 118.025L57.8236 118.059L57.4018 117.848L56.8003 117.087L56.4195 116.767L55.9183 116.617L55.3223 116.601L54.7367 116.694L54.2551 116.884L53.9745 117.186L53.7435 117.538L53.0711 118.194L52.3553 118.465L51.9091 118.788L52.0588 119.587L52.6224 120.617L52.6689 121.087L52.4403 121.79L51.3675 123.88L50.9891 124.239L49.9818 124.517L49.7666 124.91L49.9573 125.384L50.2947 125.706L50.3767 125.992L49.7966 126.349L49.2905 126.444L47.4909 126.374L46.9817 126.477L45.5251 127.085L44.3002 127.293L40.5733 126.742L38.0439 126.829L35.5665 127.858L33.4485 129.626L32.0029 131.932V131.939L31.0176 133.18L29.9338 133.879L27.405 134.887L26.6618 135.757L26.6538 136.911L27.2363 139.271L27.1709 140.396L26.9637 141.356L26.9338 142.296L27.405 143.362L27.99 144.179L28.292 144.96L28.3898 145.818L28.3708 146.87L28.4906 147.694L28.8445 148.518L29.3507 149.25L29.9277 149.803L30.3006 150.032L30.7034 150.201L32.0237 150.476L32.2254 150.606L32.1679 150.809L31.8715 151.108L31.311 151.448L30.083 151.97L29.5628 152.477L28.7516 153.733L28.2425 153.984L25.0218 153.414L22.5333 152.97L16.6475 152.698L15.6915 152.654L10.2422 152.402L5.33931 152.174L1.0654 151.979L1.0599 145.154L1.0544 138.309L1.05196 131.437L1.04646 124.541L1.04401 117.618L1.03851 110.672L1.03606 103.698L1.03056 96.6987L1.02812 89.6732L1.02262 82.6202L1.02017 75.5402L1.01467 68.4332L1.01223 61.2955L1.00672 54.133L1.00428 46.9403L1 39.7206V39.7175V39.7144V39.7113V39.7081V39.7035V39.6957V39.6926V39.6895V39.6863L1.00244 39.6832L1.00489 39.6801V39.677V39.6739H1.00733V39.6692V39.6661L1.00978 39.663L1.01284 39.6599L1.01528 39.6583L1.01834 39.6552L1.02078 39.6536L1.02323 39.6521V39.649H1.02567L1.02812 39.6458L1.03056 39.6443L1.03301 39.6427L1.03606 39.6412L1.03851 39.6396H1.04157H1.04401L1.04646 39.6365L1.0489 39.6349H1.05135L1.05379 39.6334L1.05623 39.6318H1.05868L1.06113 39.6303H1.06357L3.52999 38.9574L5.99885 38.2871L8.46527 37.6152L10.9396 36.9413L13.4085 36.2689L15.8774 35.596L18.3438 34.9231L20.2692 34.3981L20.8126 34.2502L23.2846 33.5767L25.751 32.9049L28.2198 32.2309L30.6887 31.5549L33.1606 30.882L35.6295 30.2055L38.0984 29.5305L40.5678 28.855L43.8588 27.9993L47.1498 27.1416L50.4439 26.2849L53.7379 25.4261L55.2594 25.0403L56.7814 24.6577L58.3034 24.2729L59.831 23.8866L61.4153 23.4988L63.0022 23.1073L64.589 22.7158L66.1733 22.3259L68.3078 21.8062L68.9258 21.8555L69.6447 22.1255L71.6673 23.2854L72.2419 23.6177L73.8837 24.558L76.4479 26.0279L79.8044 27.9511L82.1082 29.261Z" fill="#DFEFFE" stroke="#808080" stroke-width="0.5" stroke-linecap="round" stroke-linejoin="round"/>
<path d="M265.382 120.527L265.3 125.488L265.206 131.342L265.232 131.503L265.262 131.665L265.374 131.742L265.489 131.816L268.66 131.827L271.55 131.837L274.427 131.845L277.608 131.858L277.709 131.845L277.804 131.834L277.905 131.837L278.005 131.84L278.093 131.859L278.183 131.876L278.248 131.909L278.314 131.94L278.77 135.727L279.229 139.505L280.068 143.189L280.909 146.868L282.038 151.247L283.162 155.615L283.756 156.224L284.342 156.833L284.998 156.978L284.988 157.079L281.766 158.191L281.545 158.652L281.214 159.019L281.664 163.137L281.708 163.299L281.774 163.434L281.921 163.685L282.143 163.914L282.302 164.01L282.665 164.182L285.048 164.733L285.192 164.831L285.286 164.943L285.339 165.078L285.351 165.294L285.343 165.584L285.278 166.113V166.608L285.323 166.744L285.563 167.257L286.139 168.132L285.4 169.7L281.37 176.358L280.855 175.929L280.555 175.593L280.466 175.456L280.408 175.331L280.379 175.225L280.384 175.093L280.539 174.628L280.561 174.352L280.523 174.222L280.45 174.102L279.551 173.221L278.811 172.666L278.513 172.528L278.28 172.499L278.03 172.584L276.129 173.685L275.512 173.925L274.989 173.986L274.561 173.934L274.094 173.774L273.616 173.545L273.071 173.2L272.679 173.039L272.308 173L271.961 173.098L271.637 173.302L271.33 173.599L271.089 173.933L270.873 174.302L270.534 175.101L270.457 175.563L270.449 176.044L270.682 176.554L270.866 176.808L270.984 177.045L270.968 177.269L270.759 177.61L270.567 177.76L270.056 177.97L269.925 178.145L269.917 178.364L270.203 179.056L270.299 180.102L270.113 180.74L269.758 181.399L269.726 181.586L269.791 181.803L269.885 181.949L270.291 182.238L270.259 182.518L270.128 182.72L269.469 183.524L269.24 183.896L269.077 184.274L268.873 184.936L268.19 186.299L268.136 186.522L268.185 186.68L268.3 186.734L268.492 186.748L268.991 186.671L269.224 186.662L269.473 186.695L269.665 186.778L269.821 186.951L269.89 187.137L269.886 187.366L269.751 187.606L269.514 187.852L267.814 189.192L267.522 189.324L261.839 190.356L260.725 190.162L259.581 189.542L259.03 189.697L258.515 189.472L258.016 189.136L256.947 188.812L256.535 188.44L255.858 187.635L255.593 187.592L255.506 187.555L254.983 187.469L252.579 186.557L252.196 186.537L252.024 186.609L251.869 186.752L251.71 187.028L251.637 187.215L251.615 187.369L251.619 187.724L251.57 188.316L251.534 188.466L251.485 188.6L251.436 188.698L251.35 188.836L250.675 189.692L250.655 189.883L250.744 189.987L250.924 190.008L251.101 190.052L251.248 190.126L251.358 190.236L251.391 190.371L251.37 190.528L251.273 190.767L250.854 191.53L250.781 191.703L250.332 193.207L250.161 193.555L249.932 193.691L249.588 193.782L248.837 193.79L248.102 193.695L247.317 193.4L246.429 192.971L246.237 192.958L246.074 193.021L245.935 193.227L245.87 193.401L245.772 193.904L245.551 194.075L245.351 194.198L243.766 194.55L242.466 194.704L242.227 194.756L242.061 194.834L241.941 194.94L241.897 195.082L242.096 195.448L242.882 196.203L243.404 196.599L243.596 196.785L243.826 197.057L244.623 199.494L244.655 199.72L244.631 200.146L244.57 200.414L244.5 200.646L243.725 202.134L243.7 202.309L244.023 203.166L245.429 205.543L244.93 205.817L242.327 206.338L242.261 205.534L242.216 205.334L241.953 204.565L241.79 204.246L241.684 204.082L241.263 203.591L240.794 203.19L240.396 203.002L239.768 202.808L239.26 202.559L239.047 201.958L238.962 201.327L238.954 200.855L238.738 200.21L238.256 199.525L235.111 198.275L234.874 197.947L234.477 197.878L233.332 198.323L232.822 198.298L232.454 198.142L232.36 197.896L232.226 197.633L232.189 197.465L230.951 196.885L230.218 196.458L228.306 194.211L227.898 193.496L228.269 192.753L228.698 191.947L229.553 191.033L229.647 190.908L229.851 190.725L230.06 190.345L231.668 189.719L232.141 189.435L232.607 189.055L232.97 188.623L234.22 186.459L234.621 186.181L234.857 186.174L235.055 186.046L235.219 185.948L235.398 185.91L236.186 185.828L236.219 185.728L236.109 185.539L235.704 185.103L234.929 184.435L234.629 184.021L234.593 183.905L234.609 183.837L234.736 183.8L234.97 183.61L235.407 182.507L234.749 181.943L234.609 181.377L234.621 181.12L234.662 180.848L234.736 180.573L234.978 180.32L235.415 180.115L236.331 179.983L236.923 179.978L237.434 180.101L237.966 180.495L238.53 180.816L239.13 180.983L242.228 181.01L242.511 180.518L243.107 178.911L243.594 178.523L244.17 177.952L244.872 176.092L244.917 175.726L245.216 175.348L245.42 175.195L245.67 175.135L245.931 175.146L247.309 175.397L247.659 175.407L247.68 175.07L247.582 174.721L247.524 174.131L247.516 173.403L247.574 172.632L247.7 171.882L248.323 170.058L247.06 170.368L239.077 169.899L236.478 169.358L235.566 168.915L234.654 168.272L234.283 167.406L234.042 166.625L233.483 163.659L233.253 162.956L232.934 162.921L232.089 163.938L231.247 164.247L230.098 164.45L226.612 164.582L225.725 164.869L225.222 165.096L224.422 167.727L223.828 168.194L216.696 167.474L215.58 167.135L215.216 166.499L215.172 164.56L215.037 163.556L214.498 162.875L213.982 162.508L213.488 162.395L212.957 162.551L212.437 162.907L211.963 163.487L210.398 166.263L208.518 168.639L205.379 169.571L205.42 168.996L204.455 168.165L203.859 167.274L195.933 163.136L191.874 161.198L188.413 160.057L186.084 159.606L185.454 159.299L181.902 153.969L177.472 149.54L176.822 148.561L175.984 146.925L173.764 146.881L164.43 149.883L153.136 136.709L152.928 136.303L152.911 135.906L153.484 135.496L159.144 132.788L159.46 132.502L159.57 132.342L159.05 131.407L156.046 126.714L155.968 126.426V126.055L156.56 119.8L158.011 116.921L164.764 105.919L171.937 94.4447L172.08 94.0911L172.084 93.7853L171.684 93.5859L164.56 91.9114L163.24 90.8756L160.424 86.7884L162.6 86.4504L163.525 86.3045L164.456 86.1586L165.387 86.0132L166.312 85.8688L167.801 85.6368L169.288 85.4031L170.774 85.1695L172.261 84.9384L174.665 84.6072L177.069 84.2743L179.473 83.9426L181.879 83.6103L184.283 83.2785L186.687 82.9467L189.091 82.6149L191.497 82.2806L195.51 82.59L199.523 82.9026L203.538 83.2094L207.548 83.5189L211.197 83.8013L214.852 84.0828L218.5 84.3657L222.148 84.6461L223.599 84.7557L224.059 84.6435L224.517 84.5314L227.165 83.2852L229.7 82.0911L232.314 80.8579L234.881 79.6461L235.355 79.4945L235.828 79.3413L236.25 79.3969L236.669 79.4545L237.107 79.7883L237.554 80.1253L240.39 83.2619L243.227 86.3953L244.54 87.575L245.849 88.75L248.563 90.1949L251.273 91.6389L251.795 92.0309L252.315 92.4229L254.553 96.346L255.982 98.845L257.955 102.291L259.646 105.245L259.877 105.267L260.103 105.288L263.905 103.546L267.706 101.8L267.139 109.354L266.571 116.877L266.506 117.674L266.44 118.471L266.307 118.731L266.176 118.99L265.866 119.093L265.555 119.196L265.479 119.404L265.4 119.614L265.382 120.527Z" fill="#DFEFFE" stroke="#808080" stroke-width="0.5" stroke-linecap="round" stroke-linejoin="round"/>
<path d="M110.713 135.512L111.023 135.219L111.338 134.55L111.284 134.219L110.978 133.71L110.925 133.575L110.884 133.441L110.962 133.304L111.141 133.183L111.554 133.114L112.27 133.09L112.812 132.897L114.157 132.094L114.66 131.717L114.815 131.64L115.242 131.576L115.805 131.945L116.086 132.074L117.408 132.362L118.711 132.483L119.085 132.743L119.176 133.362L119.159 134.715L119.371 135.187L120.083 136.116L120.373 136.882L121.111 138.01L121.481 138.411L121.939 138.666L122.49 138.785L123.753 138.819L124.168 139.021L124.466 139.513L124.914 140.673L125.593 141.701L126.447 142.525L132.686 147.312L133.356 147.431L133.686 147.55L133.994 147.721L134.941 148.626L135.753 149.251L136.348 149.453L137.872 149.704L138.369 149.952L139.767 151.273L140.102 151.703L140.414 152.569L140.815 152.738L140.985 152.825L141.611 153.032L142.281 152.978L142.743 152.679L143.789 150.968L144.21 150.539L144.614 150.266L145.093 150.062L145.611 149.962L147.038 149.965L152.07 150.996L153.344 151.457L154.534 152.073L156.087 153.083L160.571 157.285L163.717 161.537L163.825 161.631L164.197 161.81L164.593 161.922L165.983 161.535L170.283 165.637L171.136 166.761L171.456 167.746L170.095 170.265L164.604 176.051L164.602 176.053L164.557 175.984L164.345 175.316L164.189 175.043L163.209 173.932L162.854 173.312L162.311 171.508L162.012 171.097L161.143 170.293L160.855 169.904L160.645 169.276L160.343 167.933L159.514 165.461L159.22 164.878L159.419 164.657L159.291 164.223L159.22 162.141L159.13 161.539L158.907 161.048L156.975 158.288L156.46 157.81L150.572 154.124L148.279 153.283L145.718 152.708L144.746 152.615L144.155 152.861L143.799 153.485L143.543 154.528L142.897 154.842L142.397 155.772L141.656 156.463L140.748 156.853L139.743 156.882L138.674 156.512L135.962 154.874L135.494 154.862L133.936 155.089L133.79 154.819L133.708 154.555L133.607 154.486L133.45 154.713L133.103 155.219L132.931 155.382L132.757 155.506L131.499 154.397L129.656 154.019L124.351 154.291L121.171 155.196L119.589 155.23L118.672 155.006L117.915 154.544L116.486 153.326L114.896 152.332L112.362 151.226L109.479 149.966L108.739 149.343L108.557 148.639L108.886 146.253L109.094 145.744L109.437 145.327L109.886 144.99L110.975 144.527L111.337 144.151L111.097 143.603L109.344 141.492L108.533 140.164L108.293 139.121L108.971 138.298L109.696 137.873L110.52 137.813L111.511 138.078L112.42 138.568L112.935 138.764L113.349 138.716L113.654 138.328L113.605 137.903L113.349 137.491L113.028 137.145L112.657 136.877L111.41 136.248L111.015 135.901L110.713 135.512Z" fill="#DFEFFE" stroke="#808080" stroke-width="0.5" stroke-linecap="round" stroke-linejoin="round"/>
<path d="M164.602 176.054L164.604 176.052L170.095 170.265L171.456 167.747L171.137 166.761L170.283 165.637L165.983 161.536L171.934 159.113L171.914 158.707L164.426 149.885L173.761 146.882L175.981 146.927L176.818 148.562L177.469 149.542L181.899 153.971L185.45 159.301L186.081 159.608L188.409 160.059L191.871 161.2L195.93 163.138L203.856 167.275L204.452 168.166L205.417 168.998L205.376 169.573L208.515 168.641L210.395 166.265L211.96 163.489L212.434 162.909L212.954 162.553L213.484 162.397L213.978 162.51L214.494 162.877L215.033 163.557L215.168 164.562L215.213 166.501L215.577 167.137L216.693 167.476L223.825 168.196L224.419 167.729L225.219 165.097L225.721 164.87L226.609 164.584L230.095 164.451L231.243 164.249L232.086 163.94L232.931 162.922L233.249 162.958L233.479 163.661L234.038 166.626L234.279 167.408L234.651 168.273L235.563 168.917L236.475 169.36L239.073 169.901L247.056 170.37L248.319 170.06L247.697 171.884L247.57 172.634L247.513 173.405L247.521 174.133L247.578 174.723L247.676 175.072L247.656 175.409L247.305 175.399L245.927 175.148L245.666 175.136L245.417 175.197L245.213 175.35L244.913 175.728L244.869 176.094L244.166 177.954L243.591 178.525L243.103 178.913L242.507 180.52L242.224 181.012L239.127 180.985L238.526 180.818L237.963 180.497L237.43 180.103L236.92 179.98L236.328 179.985L235.411 180.117L234.974 180.322L234.732 180.575L234.659 180.85L234.618 181.122L234.606 181.379L234.746 181.945L235.403 182.509L234.966 183.612L234.732 183.802L234.606 183.838L234.589 183.906L234.626 184.023L234.925 184.437L235.701 185.105L236.105 185.54L236.215 185.729L236.183 185.83L235.395 185.912L235.215 185.95L235.052 186.048L234.853 186.176L234.618 186.183L234.216 186.46L232.967 188.625L232.603 189.057L232.137 189.437L231.665 189.721L230.056 190.347L229.848 190.727L229.644 190.91L229.549 191.035L228.694 191.949L228.266 192.755L227.894 193.498L228.302 194.213L230.215 196.459L230.947 196.887L232.186 197.467L232.222 197.634L232.357 197.898L232.451 198.144L232.818 198.3L233.329 198.325L234.474 197.88L234.871 197.949L235.108 198.277L238.251 199.53L238.732 200.215L238.949 200.86L238.957 201.332L239.042 201.962L239.254 202.564L239.762 202.812L240.391 203.006L240.789 203.195L241.258 203.596L241.679 204.087L241.785 204.25L241.948 204.57L242.211 205.339L242.256 205.538L242.322 206.343L241.079 207.139L238.438 209.379L238.108 209.597L237.796 209.693L237.555 209.678L237.232 209.71L237.036 209.789L236.881 209.892L234.875 211.748L234.62 212.04L234.461 212.284L234.432 212.442V212.59L234.461 212.729L234.502 212.861L234.628 213.109L234.812 213.338L235.655 214.215L235.744 214.329L235.818 214.473L235.838 214.639L235.777 214.879L235.655 214.996L235.504 215.072L231.122 216.42L229.708 216.854L226.083 218.09L224.848 218.811L222.444 221.042L222.036 221.405L222.033 221.407L221.237 220.531L220.611 220.201L219.816 220.28L217.777 221.147L217.096 221.272L216.318 221.147L215.528 220.797L211.289 218.225L207.611 215.992L204.693 214.218L203.092 212.819L200.261 209.462L198.59 208.112L194.931 205.903L186.247 200.652L181.967 198.06L178.377 195.881L175.295 194.008L173.773 192.708L173.489 192.57L171.598 190.549L171.312 189.771L170.849 188.136L170.776 187.467L170.886 186.838L171.105 186.309L171.252 185.782L171.149 185.161L170.34 183.671L170.233 183.076L170.212 182.302L170.116 181.72L169.899 181.19L169.222 180.034L169.058 179.493L168.976 178.257L168.722 177.994L166.544 176.93L165.294 176.612L164.725 176.247L164.602 176.054Z" fill="#DFEFFE" stroke="#808080" stroke-width="0.5" stroke-linecap="round" stroke-linejoin="round"/>
<path d="M350.466 155.022L349.672 154.848L349.344 154.346L349.496 154.056L349.473 153.937L349.051 154.307L348.394 153.673L348.207 153.343L348.159 152.973L347.714 153.198L347.637 153.134L348.323 151.692L348.534 150.754L349.931 149.559L350.821 149.55L351.442 149.92L352.252 150.013L353.225 150.542L353.323 151.023L352.92 151.613L353.283 151.811L353.553 152.155L353.365 152.432L353.635 152.67L352.639 153.092L351.302 154.122L350.466 155.022Z" fill="#DFEFFE" stroke="#808080" stroke-width="0.5" stroke-linecap="round" stroke-linejoin="round"/>
<path d="M97.9407 95.1355C161.747 30.9496 338.71 55.9223 425.64 149.933" stroke="#37C9F8" stroke-width="3" stroke-dasharray="10 5"/>
<path d="M23.5471 29.4605C26.2545 21.0111 38.532 2.00002 74.0204 2C110.853 1.99998 156.209 60.0898 175.547 96" stroke="#37C9F8" stroke-width="3" stroke-dasharray="10 5"/>
<path d="M248.547 109.638C248.072 106.985 247.136 119.687 240.295 102.968C231.743 82.0689 210.746 89.7022 203.747 102.968C193.77 121.876 192.688 136.967 193.994 153" stroke="#37C9F8" stroke-width="3" stroke-dasharray="10 5"/>
<g filter="url(#filter0_d)">
<path d="M250.703 118.327C255.932 109.343 258.547 103.28 258.547 100.139C258.547 95.0916 254.518 91.0001 249.547 91.0001C244.577 91.0001 240.547 95.0916 240.547 100.139C240.547 103.28 243.162 109.343 248.391 118.327C248.772 118.981 249.598 119.195 250.236 118.806C250.428 118.688 250.589 118.524 250.703 118.327Z" fill="#42A5F5"/>
</g>
<path d="M249.847 105C252.332 105 254.347 103.041 254.347 100.625C254.347 98.2089 252.332 96.2501 249.847 96.2501C247.362 96.2501 245.347 98.2089 245.347 100.625C245.347 103.041 247.362 105 249.847 105Z" fill="#616161"/>
<g filter="url(#filter1_d)">
<path d="M16.7031 42.3272C21.9325 33.3428 24.5471 27.2799 24.5471 24.1387C24.5471 19.0915 20.5177 15 15.5471 15C10.5766 15 6.54712 19.0915 6.54712 24.1387C6.54712 27.2799 9.16179 33.3428 14.3911 42.3272C14.7717 42.9811 15.5978 43.1952 16.2362 42.8054C16.4282 42.6882 16.5887 42.5238 16.7031 42.3272Z" fill="#42A5F5"/>
</g>
<path d="M15.8472 29C18.3324 29 20.3472 27.0412 20.3472 24.625C20.3472 22.2088 18.3324 20.25 15.8472 20.25C13.3619 20.25 11.3472 22.2088 11.3472 24.625C11.3472 27.0412 13.3619 29 15.8472 29Z" fill="#616161"/>
<g filter="url(#filter2_d)">
<path d="M96.7031 99.3272C101.932 90.3428 104.547 84.2799 104.547 81.1387C104.547 76.0915 100.518 72 95.5471 72C90.5766 72 86.5471 76.0915 86.5471 81.1387C86.5471 84.2799 89.1618 90.3428 94.3911 99.3272C94.7717 99.9811 95.5978 100.195 96.2362 99.8054C96.4282 99.6882 96.5887 99.5238 96.7031 99.3272Z" fill="#42A5F5"/>
</g>
<path d="M95.8472 86C98.3324 86 100.347 84.0412 100.347 81.625C100.347 79.2088 98.3324 77.25 95.8472 77.25C93.3619 77.25 91.3472 79.2088 91.3472 81.625C91.3472 84.0412 93.3619 86 95.8472 86Z" fill="#616161"/>
<g filter="url(#filter3_d)">
<path d="M191.703 157.327C196.932 148.343 199.547 142.28 199.547 139.139C199.547 134.092 195.518 130 190.547 130C185.577 130 181.547 134.092 181.547 139.139C181.547 142.28 184.162 148.343 189.391 157.327C189.772 157.981 190.598 158.195 191.236 157.806C191.428 157.688 191.589 157.524 191.703 157.327Z" fill="#42A5F5"/>
</g>
<path d="M190.847 144C193.332 144 195.347 142.041 195.347 139.625C195.347 137.209 193.332 135.25 190.847 135.25C188.362 135.25 186.347 137.209 186.347 139.625C186.347 142.041 188.362 144 190.847 144Z" fill="#616161"/>
<g filter="url(#filter4_d)">
<path d="M178.703 97.3272C183.932 88.3428 186.547 82.2799 186.547 79.1387C186.547 74.0915 182.518 70 177.547 70C172.577 70 168.547 74.0915 168.547 79.1387C168.547 82.2799 171.162 88.3428 176.391 97.3272C176.772 97.9811 177.598 98.1952 178.236 97.8054C178.428 97.6882 178.589 97.5238 178.703 97.3272Z" fill="#42A5F5"/>
</g>
<path d="M177.847 84C180.332 84 182.347 82.0412 182.347 79.625C182.347 77.2088 180.332 75.25 177.847 75.25C175.362 75.25 173.347 77.2088 173.347 79.625C173.347 82.0412 175.362 84 177.847 84Z" fill="#616161"/>
<g filter="url(#filter5_d)">
<path d="M430.703 159.327C435.932 150.343 438.547 144.28 438.547 141.139C438.547 136.092 434.518 132 429.547 132C424.577 132 420.547 136.092 420.547 141.139C420.547 144.28 423.162 150.343 428.391 159.327C428.772 159.981 429.598 160.195 430.236 159.806C430.428 159.688 430.589 159.524 430.703 159.327Z" fill="#42A5F5"/>
</g>
<path d="M429.847 146C432.332 146 434.347 144.041 434.347 141.625C434.347 139.209 432.332 137.25 429.847 137.25C427.362 137.25 425.347 139.209 425.347 141.625C425.347 144.041 427.362 146 429.847 146Z" fill="#616161"/>
<path fill-rule="evenodd" clip-rule="evenodd" d="M409.059 81.412C407.256 82.2638 405.14 81.9855 404.333 80.7903C403.526 79.5951 404.334 77.9357 406.136 77.0838C407.939 76.232 410.055 76.5104 410.861 77.7056C411.668 78.9008 410.861 80.5602 409.059 81.412Z" fill="#CCE3FF"/>
<path d="M390.175 87.6555L407.438 79.3459" stroke="#DCEEFF"/>
<path fill-rule="evenodd" clip-rule="evenodd" d="M401.219 79.4007C400.754 80.9622 399.26 81.9401 397.88 81.585C396.5 81.2298 395.758 79.676 396.223 78.1145C396.687 76.5529 398.182 75.575 399.561 75.9302C400.941 76.2854 401.683 77.8391 401.219 79.4007Z" fill="#CCE3FF"/>
<path fill-rule="evenodd" clip-rule="evenodd" d="M403.532 87.6959C403.158 88.9551 401.251 89.5632 399.273 89.054C397.295 88.5448 395.996 87.1112 396.37 85.852" fill="#CCE3FF"/>
<path d="M401.153 87.4152L394.315 85.6636" stroke="#DCEEFF"/>
<path d="M404.624 84.312L399.674 83.0107" stroke="#DCEEFF"/>
<path d="M393.972 82.0786L392.62 86.5203" stroke="#DCEEFF"/>
<path d="M398.691 78.5122L396.88 84.4512" stroke="#DCEEFF"/>
<path fill-rule="evenodd" clip-rule="evenodd" d="M385.113 91.586L383.558 89.2854C382.364 87.5183 383.024 85.2997 385.024 84.355L388.447 82.7388L394.343 91.465L390.921 93.0813C388.92 94.0259 386.307 93.3531 385.113 91.586Z" fill="#DFEFFE"/>
<path d="M392.394 92.2557L386.672 83.6781" stroke="#C4E1FD"/>
<path d="M390.438 93.1969L384.716 84.6195" stroke="#C4E1FD"/>
<path d="M410.875 41.8476L411.53 37.4232L404.476 36.3642L410.875 41.8476Z" fill="#B7BBBD"/>
<path d="M438.882 51.2201L412.418 25.5912L411.176 34.7317L404.837 36.126L410.417 38.0973L406.161 50.3909L438.882 51.2201Z" fill="#EBEBEB"/>
<path d="M438.901 51.1405L409.987 38.1655L404.519 36.0072L410.722 34.6189L438.901 51.1405Z" fill="#D1D5D7"/>
<path d="M340.555 55.7995L357.91 68.1945L364.509 61.5239L353.464 53.6362C349.979 51.1471 345.184 51.1201 342.754 53.576L340.555 55.7995Z" fill="#E4EDFB"/>
<path d="M345.829 51.978L362.308 63.7476L357.91 68.1945L340.554 55.7997L342.754 53.5762C343.558 52.7625 344.637 52.2464 345.829 51.978Z" fill="#D7E1F2"/>
<path d="M301.3 41.0449L350.211 75.976L360.108 65.9702L317.509 35.5464C314.023 33.0573 309.228 33.0303 306.799 35.4861L301.3 41.0449Z" fill="#DFEFFE"/>
<path d="M353.033 70.4019L305.7 36.5974L301.301 41.0445L348.634 74.8489L353.033 70.4019Z" fill="#37C9F8"/>
<path d="M372.684 55.981L369.522 53.7383L341.011 82.7441L344.173 84.9868L372.684 55.981Z" fill="#8DABC7"/>
<path d="M303.357 44.4106L300.201 42.1571L293.699 48.7308L296.854 50.9844L303.357 44.4106Z" fill="#8DABC7"/>
<path d="M303.357 44.4106L300.201 42.157L295.802 46.604L298.958 48.8576L303.357 44.4106Z" fill="#8DABC7"/>
<path d="M350.689 78.2144L347.534 75.9607L343.135 80.4077L346.29 82.6614L350.689 78.2144Z" fill="#8DABC7"/>
<path d="M353.989 74.8804L303.501 38.8226L298.002 44.3813L348.491 80.4391L353.989 74.8804Z" fill="#8DABC7"/>
<path d="M279.058 39.5719C278.051 37.9567 276.811 36.4751 275.364 35.1589C273.91 33.848 272.261 32.7124 270.451 31.7765C270.094 31.3718 269.65 30.263 269.448 29.5939C269.392 29.4091 269.269 29.2509 269.095 29.1417C268.922 29.0326 268.706 28.9781 268.48 28.9859C268.254 28.9938 268.029 29.0635 267.835 29.1853C267.642 29.3072 267.491 29.4749 267.404 29.6647C267.087 30.3521 266.452 31.4978 266.024 31.9302C262.031 34.0792 260.41 35.4502 258.696 36.9005C256.981 38.3508 255.36 39.7217 252.77 43.1412C252.262 43.5004 250.932 44.0165 250.137 44.2704C249.917 44.3402 249.72 44.4665 249.574 44.6313C249.428 44.7961 249.341 44.9912 249.324 45.1887C249.307 45.3863 249.362 45.5764 249.481 45.7321C249.599 45.8878 249.776 46.0012 249.985 46.0562C250.743 46.256 251.993 46.6828 252.443 47.0083C254.457 50.2552 257.411 52.9311 261.05 54.8037C261.406 55.2084 261.851 56.3172 262.053 56.9863C262.109 57.1712 262.232 57.3294 262.406 57.4385C262.579 57.5476 262.794 57.6021 263.02 57.5943C263.246 57.5865 263.472 57.5167 263.665 57.3949C263.858 57.2731 264.01 57.1054 264.097 56.9156C264.414 56.2281 265.049 55.0824 265.476 54.6501C269.47 52.501 271.09 51.1301 272.805 49.6798C274.52 48.2295 276.141 46.8585 278.73 43.439C279.239 43.0798 280.569 42.5637 281.364 42.3099C281.584 42.24 281.78 42.1137 281.926 41.9488C282.072 41.784 282.159 41.5891 282.176 41.3916C282.193 41.1941 282.138 41.004 282.02 40.8484C281.901 40.6927 281.725 40.5793 281.516 40.5243C280.758 40.3242 279.508 39.8975 279.058 39.5719Z" fill="#DFEFFE"/>
<path d="M279.913 39.9957C279.862 40.0263 279.815 40.0564 279.774 40.085C277.184 43.5045 275.563 44.8755 273.849 46.3258C272.134 47.7761 270.513 49.1471 266.52 51.2957C266.092 51.7282 264.256 51.9681 262.093 51.4498C258.455 49.5771 255.5 46.9012 253.487 43.6543C253.223 43.4852 252.937 43.3431 252.632 43.2305C252.051 43.582 250.869 44.037 250.137 44.2703C249.917 44.3401 249.72 44.4664 249.574 44.6312C249.428 44.796 249.341 44.9911 249.324 45.1887C249.307 45.3863 249.362 45.5764 249.481 45.7321C249.599 45.8878 249.776 46.0012 249.985 46.0562C250.743 46.256 251.993 46.6828 252.443 47.0083C254.457 50.2552 257.411 52.9311 261.05 54.8038C261.407 55.2085 261.851 56.3173 262.053 56.9864C262.109 57.1713 262.232 57.3295 262.406 57.4386C262.579 57.5477 262.794 57.6022 263.02 57.5944C263.247 57.5866 263.472 57.5168 263.665 57.395C263.859 57.2732 264.01 57.1055 264.097 56.9156C264.414 56.2282 265.049 55.0825 265.476 54.6502C269.47 52.5011 271.091 51.1301 272.805 49.6798C274.52 48.2295 276.141 46.8585 278.731 43.439C279.239 43.0798 280.569 42.5637 281.364 42.3099C281.584 42.24 281.78 42.1137 281.926 41.9488C282.072 41.784 282.16 41.5891 282.176 41.3916C282.193 41.1941 282.138 41.004 282.02 40.8484C281.901 40.6927 281.725 40.5793 281.516 40.5242C280.967 40.3765 280.431 40.2 279.913 39.9957Z" fill="#D4E4F2"/>
<path d="M266.004 43.7591C265.98 43.5934 265.904 43.4417 265.783 43.3201C265.663 43.1985 265.503 43.1117 265.32 43.0688C265.138 43.0259 264.94 43.0286 264.747 43.0767C264.554 43.1247 264.375 43.2162 264.226 43.3414L261.772 45.4175L263.183 46.6954L264.109 45.9124L264.34 47.5027C264.364 47.6684 264.44 47.8201 264.561 47.9416C264.681 48.0632 264.841 48.15 265.024 48.1929C265.206 48.2357 265.404 48.233 265.597 48.185C265.789 48.137 265.969 48.0455 266.117 47.9203L268.572 45.8442L267.161 44.5663L266.235 45.3493L266.004 43.7591Z" fill="url(#paint0_linear)"/>
<path d="M268.21 39.9714L267.978 38.3811C267.954 38.2154 267.878 38.0636 267.758 37.942C267.637 37.8205 267.477 37.7336 267.295 37.6907C267.112 37.6479 266.914 37.6506 266.721 37.6986C266.529 37.7466 266.349 37.8381 266.201 37.9634L263.746 40.0396L265.157 41.3175L266.083 40.5345L266.314 42.1249C266.339 42.2906 266.415 42.4423 266.535 42.5638C266.656 42.6854 266.816 42.7722 266.998 42.8151C267.18 42.8579 267.379 42.8552 267.571 42.8072C267.764 42.7592 267.944 42.6677 268.092 42.5425L270.546 40.4663L269.135 39.1883L268.21 39.9714Z" fill="url(#paint1_linear)"/>
<path fill-rule="evenodd" clip-rule="evenodd" d="M191.185 234.347V235.155C191.185 241.896 185.82 247.356 179.208 247.356H85.3902C70.9188 247.356 59.7822 233.822 61.7794 218.657L72.3713 134.16C73.2885 127.162 78.9404 121.954 85.6193 121.954H113.425C120.1 121.954 125.751 127.162 126.674 134.16L137.266 218.657C137.346 219.26 137.404 219.864 137.438 220.462L137.495 220.453C137.495 220.453 139.454 234.347 157.665 234.347H191.185Z" fill="#808087"/>
<path fill-rule="evenodd" clip-rule="evenodd" d="M91.3082 342.538C91.3082 346.847 87.7234 350.341 83.3022 350.341C78.8805 350.341 75.2966 346.847 75.2966 342.538C75.2966 338.228 78.8805 334.734 83.3022 334.734C87.7234 334.734 91.3082 338.228 91.3082 342.538Z" fill="#A5A2A2"/>
<path fill-rule="evenodd" clip-rule="evenodd" d="M164.361 344.102H85.2438C82.2136 344.102 79.7341 341.685 79.7341 338.731C79.7341 335.777 82.2136 333.36 85.2438 333.36H164.361C167.391 333.36 169.871 335.777 169.871 338.731C169.871 341.685 167.391 344.102 164.361 344.102Z" fill="#B9B9B9"/>
<path fill-rule="evenodd" clip-rule="evenodd" d="M120.744 341.546H128.864V247.03H120.744V341.546Z" fill="#D6D2D2"/>
<path fill-rule="evenodd" clip-rule="evenodd" d="M226.408 343.679H238.929V185.016H226.408V343.679Z" fill="#A5A2A2"/>
<path fill-rule="evenodd" clip-rule="evenodd" d="M152.624 247.03L124.803 259.379L96.9832 247.03H152.624Z" fill="#D6D2D2"/>
<path fill-rule="evenodd" clip-rule="evenodd" d="M125.419 344.102H115.152C112.122 344.102 109.642 341.685 109.642 338.731C109.642 335.777 112.122 333.36 115.152 333.36H125.419C128.449 333.36 130.928 335.777 130.928 338.731C130.928 341.685 128.449 344.102 125.419 344.102Z" fill="#A5A2A2"/>
<path fill-rule="evenodd" clip-rule="evenodd" d="M118.684 342.538C118.684 346.847 115.1 350.341 110.679 350.341C106.256 350.341 102.673 346.847 102.673 342.538C102.673 338.228 106.256 334.734 110.679 334.734C115.1 334.734 118.684 338.228 118.684 342.538Z" fill="#A5A2A2"/>
<path fill-rule="evenodd" clip-rule="evenodd" d="M174.84 342.538C174.84 346.847 171.256 350.341 166.834 350.341C162.412 350.341 158.828 346.847 158.828 342.538C158.828 338.228 162.412 334.734 166.834 334.734C171.256 334.734 174.84 338.228 174.84 342.538Z" fill="#A5A2A2"/>
<path fill-rule="evenodd" clip-rule="evenodd" d="M157.641 93.5752C158.131 105.081 164.376 111.976 164.959 122.714C165.71 136.526 157.584 135.066 158.2 146.4C158.519 152.274 104.837 166.453 89.7085 147.983C80.0004 136.132 89.6296 134.654 88.7565 118.574C87.8917 102.657 99.6477 100.268 99.192 91.8763C98.5855 80.7093 107.789 65.8303 122.814 65.0521C141.114 64.1046 156.901 76.1849 157.641 93.5752Z" fill="#19141E"/>
<path fill-rule="evenodd" clip-rule="evenodd" d="M130.283 120.587C130.283 120.587 124.903 121.022 122.539 119.917L130.185 124.063L130.283 120.587Z" fill="#CF3E83"/>
<path d="M117.958 110.776C119.794 113.324 119.29 116.832 118.435 118.911C118.147 119.625 116.347 125.58 116.052 125.861C114.907 126.95 129.949 132.436 129.949 132.436L130.284 120.587C134.559 120.606 139.55 120.128 142.2 118.205C150.095 112.477 149.578 94.0546 149.394 93.1413L142.123 86.0121C142.123 86.0121 131.519 81.8885 130.052 83.9495C127.368 87.724 121.508 104.296 116.526 102.697C116.526 102.697 116.867 97.6213 112.548 97.8507C109.33 98.0216 108.596 100.583 108.677 102.036C108.951 106.942 115.491 107.344 117.958 110.776Z" fill="#DB9E75"/>
<path fill-rule="evenodd" clip-rule="evenodd" d="M141.031 102.133L144.512 109.262L140.93 109.377L141.031 102.133Z" fill="#125475"/>
<path fill-rule="evenodd" clip-rule="evenodd" d="M137.765 102.619C137.768 104.079 136.951 105.259 135.941 105.255C134.931 105.25 134.11 104.063 134.108 102.603C134.105 101.143 134.922 99.9633 135.932 99.9678C136.942 99.9723 137.762 101.16 137.765 102.619Z" fill="#0D0B6D"/>
<path fill-rule="evenodd" clip-rule="evenodd" d="M147.207 101.902C147.21 103.362 146.393 104.542 145.383 104.537C144.373 104.533 143.553 103.345 143.55 101.885C143.548 100.425 144.364 99.2455 145.374 99.25C146.384 99.2545 147.205 100.442 147.207 101.902Z" fill="#0D0B6D"/>
<path fill-rule="evenodd" clip-rule="evenodd" d="M143.434 73.9711C143.79 73.5832 144.167 73.2132 144.564 72.863C145.454 73.6079 146.299 74.4029 147.087 75.2483C151.331 79.7881 154.043 85.6883 154.41 92.2444C154.419 92.4104 154.428 92.5723 154.434 92.7383H154.438L154.735 98.0502C154.524 98.0535 154.316 98.0486 154.105 98.0401C149.972 97.8594 146.236 96.0857 143.599 93.3143C142.622 92.2851 141.794 91.1171 141.151 89.8437C141.05 89.6549 140.96 89.4576 140.87 89.2684C140.423 88.261 140.089 87.1936 139.886 86.0817C125.762 105.526 116.525 102.7 116.525 102.7L117.864 92.5293L107.572 81.7381C107.572 81.7381 136.925 69.3761 143.434 73.9711Z" fill="#19141E"/>
<path fill-rule="evenodd" clip-rule="evenodd" d="M143.434 73.9711C143.79 73.5832 144.167 73.2132 144.564 72.863C145.454 73.6079 146.299 74.4029 147.087 75.2483C151.331 79.7881 154.043 85.6883 154.41 92.2444C154.419 92.4104 154.428 92.5723 154.434 92.7383H154.438L154.735 98.0502C154.524 98.0535 154.316 98.0486 154.105 98.0401C149.972 97.8594 146.236 96.0857 143.599 93.3143C142.622 92.2851 141.794 91.1171 141.151 89.8437C141.05 89.6549 140.96 89.4576 140.87 89.2684C140.423 88.261 140.089 87.1936 139.886 86.0817C125.762 105.526 116.525 102.7 116.525 102.7L117.864 92.5293L107.572 81.7381C107.572 81.7381 136.925 69.3761 143.434 73.9711Z" fill="#19141E"/>
<path d="M140.242 112.917C140.242 112.917 133.686 114.46 133.074 110.289" stroke="#1C295E"/>
<path opacity="0.396996" fill-rule="evenodd" clip-rule="evenodd" d="M130.275 120.587C130.275 120.587 124.895 121.021 122.531 119.917L130.177 124.063L130.275 120.587Z" fill="black"/>
<path fill-rule="evenodd" clip-rule="evenodd" d="M165.106 216.486C165.106 216.486 160.389 217.063 159.491 219.121C156.923 225.008 162.244 235.532 162.244 235.532C162.244 235.532 159.99 234.192 159.541 235.364C159.341 235.886 158.889 240.056 167.336 240.336C168.233 240.366 170.391 238.588 170.391 238.588C170.391 238.588 168.818 241.516 171.226 242.091C171.226 242.091 175.108 236.421 175.168 235.16C175.227 233.898 173.981 227.512 173.308 226.222C172.634 224.932 165.106 216.486 165.106 216.486ZM85.2264 226.814L83.5553 216.686C81.2751 217.713 79.3062 217.628 77.6671 217.557C75.9834 217.485 74.6476 217.428 73.6795 218.605C71.7483 220.953 69.5262 225.776 68.3693 228.634C67.8914 229.813 67.6117 234.13 67.9724 236.57C68.1769 237.952 68.8806 239.305 68.8806 239.305C68.8806 239.305 69.5826 241.891 69.9657 242.162C71.048 242.928 71.7391 241.829 71.7391 241.829C71.7391 241.829 72.0075 245.458 72.8627 245.227C73.3902 245.084 74.2166 244.53 74.3644 243.657C75.306 238.099 77.2893 232.435 79.4037 231.707C80.7614 231.239 80.8928 233.495 81.0158 235.607C81.0844 236.784 81.1504 237.916 81.4246 238.508C82.168 240.11 85.7957 241.688 85.221 238.99C84.4341 235.294 84.6205 233.813 84.8983 231.607C84.9115 231.502 84.9249 231.395 84.9385 231.286C85.2369 228.896 85.2264 226.814 85.2264 226.814Z" fill="#DB9E75"/>
<path opacity="0.152414" d="M163.969 224.092C163.969 224.092 165.155 228.456 169.223 229.816C170.646 230.292 170.29 235.906 173.777 235.234" stroke="black" stroke-width="3"/>
<path d="M114.056 129.195L115.253 120.737L133.488 123.188L132.493 130.217C137.846 130.721 141.49 131.739 144.9 134.791C155.852 144.591 156.657 181.279 156.657 181.279L168.231 219.826L158.707 220.99C158.707 220.99 142.763 200.396 139.24 189.322H106.581C106.581 189.322 106.89 186.031 106.122 181.275C105.112 175.055 101.485 170.417 101.485 170.417L94.9239 178.285L83.5547 217.536L73.1078 219.362C73.1078 219.362 69.9734 187.276 76.3132 169.754C81.8559 154.428 91.9689 137.785 99.8655 132.936C104.879 129.856 109.588 129.18 114.056 129.195Z" fill="#CE3D29"/>
<path opacity="0.195894" d="M142.482 189.748C143.821 173.173 153.088 169.668 146.41 151.08" stroke="black" stroke-width="3"/>
<path opacity="0.195894" d="M109.618 158.405L101.484 170.416" stroke="black" stroke-width="3"/>
<path fill-rule="evenodd" clip-rule="evenodd" d="M159.232 312.77L151.505 314.006C151.505 314.006 146.55 320.853 146.405 321.972C146.259 323.092 148.181 333.713 149.403 334.549C149.674 334.735 150.014 335.985 150.508 337.806C152.117 343.734 155.368 355.716 163.274 356.748C169.336 357.539 168.589 352.879 167.612 346.778C167.41 345.518 167.198 344.196 167.035 342.848C165.477 330.005 159.232 312.77 159.232 312.77ZM246.896 328.52L219.883 317.415C219.883 317.415 214.714 330.429 225.822 331.106C225.822 331.106 241.342 344.93 251.855 340.869C258.847 338.169 256.253 336.107 251.223 332.108C249.905 331.06 248.42 329.88 246.896 328.52Z" fill="#0D0B6D"/>
<path d="M186.254 204.848C193.57 204.136 201.202 208.325 203.401 216.356C213.165 252.019 227.638 306.308 229.556 314.173L246.896 328.518C246.896 328.518 245.053 331.212 240.446 331.661C235.839 332.11 219.783 318.126 219.783 318.126L219.914 318.034L184.756 246.913C174.408 279.376 163.06 314.859 161.454 319.414C163.46 327.173 165.923 339.346 161.77 339.799C155.658 340.467 150.405 320.48 150.405 320.48L150.465 320.432L160.423 235.712L139.741 229.846L148.658 211.985L171.415 203.255C176.777 201.197 182.164 202.127 186.254 204.848Z" fill="#DB9E75"/>
<path opacity="0.20266" d="M184.755 246.921C184.755 246.921 194.411 222.029 193.041 213.851C191.671 205.673 182.219 203.837 182.219 203.837" stroke="black" stroke-width="3"/>
<path d="M107.071 185.423C107.071 185.423 88.2802 204.421 93.8997 220.528C99.9241 237.793 157.727 235.46 157.727 235.46C157.727 235.46 168.999 209.312 198.35 207.647L142.973 185.985L107.071 185.423Z" fill="#2F2F3D"/>
<path d="M309.929 182.989H159.186C158.608 182.989 158.139 183.523 158.139 184.181C158.139 184.839 158.608 185.373 159.186 185.373H309.929C310.507 185.373 310.976 184.839 310.976 184.181C310.976 183.523 310.507 182.989 309.929 182.989Z" fill="#A5A2A2"/>
<path fill-rule="evenodd" clip-rule="evenodd" d="M230.252 134.162H291.101L276.823 178.913H215.974L230.252 134.162Z" fill="#5E93D1"/>
<path fill-rule="evenodd" clip-rule="evenodd" d="M286.927 136.199L275.095 174.848H222.235L234.067 136.199H286.927Z" fill="white"/>
<path fill-rule="evenodd" clip-rule="evenodd" d="M276.493 148.401L275.931 150.435H232.669L233.23 148.401H276.493Z" fill="#B6D4FF"/>
<path fill-rule="evenodd" clip-rule="evenodd" d="M272.319 152.467L271.766 154.501H230.582L231.135 152.467H272.319Z" fill="#B6D4FF"/>
<path fill-rule="evenodd" clip-rule="evenodd" d="M259.798 156.537L259.223 158.571H228.495L229.069 156.537H259.798Z" fill="#B6D4FF"/>
<path fill-rule="evenodd" clip-rule="evenodd" d="M232.669 182.983H276.493V178.914H232.669V182.983Z" fill="#ECF6FF"/>
<path fill-rule="evenodd" clip-rule="evenodd" d="M278.58 142.298L278.018 144.332H234.756L235.317 142.298H278.58Z" fill="#B6D4FF"/>
<path fill-rule="evenodd" clip-rule="evenodd" d="M272.319 144.332L271.749 146.366H232.669L233.239 144.332H272.319Z" fill="#B6D4FF"/>
<path fill-rule="evenodd" clip-rule="evenodd" d="M174.034 182.989H225.387H276.741V179.413H174.034V182.989Z" fill="#5E93D1"/>
<defs>
<filter id="filter0_d" x="236.547" y="91.0001" width="26" height="36" filterUnits="userSpaceOnUse" color-interpolation-filters="sRGB">
<feFlood flood-opacity="0" result="BackgroundImageFix"/>
<feColorMatrix in="SourceAlpha" type="matrix" values="0 0 0 0 0 0 0 0 0 0 0 0 0 0 0 0 0 0 127 0"/>
<feOffset dy="4"/>
<feGaussianBlur stdDeviation="2"/>
<feColorMatrix type="matrix" values="0 0 0 0 0 0 0 0 0 0 0 0 0 0 0 0 0 0 0.25 0"/>
<feBlend mode="normal" in2="BackgroundImageFix" result="effect1_dropShadow"/>
<feBlend mode="normal" in="SourceGraphic" in2="effect1_dropShadow" result="shape"/>
</filter>
<filter id="filter1_d" x="2.54712" y="15" width="26" height="36" filterUnits="userSpaceOnUse" color-interpolation-filters="sRGB">
<feFlood flood-opacity="0" result="BackgroundImageFix"/>
<feColorMatrix in="SourceAlpha" type="matrix" values="0 0 0 0 0 0 0 0 0 0 0 0 0 0 0 0 0 0 127 0"/>
<feOffset dy="4"/>
<feGaussianBlur stdDeviation="2"/>
<feColorMatrix type="matrix" values="0 0 0 0 0 0 0 0 0 0 0 0 0 0 0 0 0 0 0.25 0"/>
<feBlend mode="normal" in2="BackgroundImageFix" result="effect1_dropShadow"/>
<feBlend mode="normal" in="SourceGraphic" in2="effect1_dropShadow" result="shape"/>
</filter>
<filter id="filter2_d" x="82.5471" y="72" width="26" height="36" filterUnits="userSpaceOnUse" color-interpolation-filters="sRGB">
<feFlood flood-opacity="0" result="BackgroundImageFix"/>
<feColorMatrix in="SourceAlpha" type="matrix" values="0 0 0 0 0 0 0 0 0 0 0 0 0 0 0 0 0 0 127 0"/>
<feOffset dy="4"/>
<feGaussianBlur stdDeviation="2"/>
<feColorMatrix type="matrix" values="0 0 0 0 0 0 0 0 0 0 0 0 0 0 0 0 0 0 0.25 0"/>
<feBlend mode="normal" in2="BackgroundImageFix" result="effect1_dropShadow"/>
<feBlend mode="normal" in="SourceGraphic" in2="effect1_dropShadow" result="shape"/>
</filter>
<filter id="filter3_d" x="177.547" y="130" width="26" height="36" filterUnits="userSpaceOnUse" color-interpolation-filters="sRGB">
<feFlood flood-opacity="0" result="BackgroundImageFix"/>
<feColorMatrix in="SourceAlpha" type="matrix" values="0 0 0 0 0 0 0 0 0 0 0 0 0 0 0 0 0 0 127 0"/>
<feOffset dy="4"/>
<feGaussianBlur stdDeviation="2"/>
<feColorMatrix type="matrix" values="0 0 0 0 0 0 0 0 0 0 0 0 0 0 0 0 0 0 0.25 0"/>
<feBlend mode="normal" in2="BackgroundImageFix" result="effect1_dropShadow"/>
<feBlend mode="normal" in="SourceGraphic" in2="effect1_dropShadow" result="shape"/>
</filter>
<filter id="filter4_d" x="164.547" y="70" width="26" height="36" filterUnits="userSpaceOnUse" color-interpolation-filters="sRGB">
<feFlood flood-opacity="0" result="BackgroundImageFix"/>
<feColorMatrix in="SourceAlpha" type="matrix" values="0 0 0 0 0 0 0 0 0 0 0 0 0 0 0 0 0 0 127 0"/>
<feOffset dy="4"/>
<feGaussianBlur stdDeviation="2"/>
<feColorMatrix type="matrix" values="0 0 0 0 0 0 0 0 0 0 0 0 0 0 0 0 0 0 0.25 0"/>
<feBlend mode="normal" in2="BackgroundImageFix" result="effect1_dropShadow"/>
<feBlend mode="normal" in="SourceGraphic" in2="effect1_dropShadow" result="shape"/>
</filter>
<filter id="filter5_d" x="416.547" y="132" width="26" height="36" filterUnits="userSpaceOnUse" color-interpolation-filters="sRGB">
<feFlood flood-opacity="0" result="BackgroundImageFix"/>
<feColorMatrix in="SourceAlpha" type="matrix" values="0 0 0 0 0 0 0 0 0 0 0 0 0 0 0 0 0 0 127 0"/>
<feOffset dy="4"/>
<feGaussianBlur stdDeviation="2"/>
<feColorMatrix type="matrix" values="0 0 0 0 0 0 0 0 0 0 0 0 0 0 0 0 0 0 0.25 0"/>
<feBlend mode="normal" in2="BackgroundImageFix" result="effect1_dropShadow"/>
<feBlend mode="normal" in="SourceGraphic" in2="effect1_dropShadow" result="shape"/>
</filter>
<linearGradient id="paint0_linear" x1="264.951" y1="48.2357" x2="264.771" y2="43.0476" gradientUnits="userSpaceOnUse">
<stop stop-color="#B7DCFF"/>
<stop offset="1" stop-color="#E1D9E6"/>
</linearGradient>
<linearGradient id="paint1_linear" x1="956.744" y1="69.5977" x2="968.386" y2="-115.902" gradientUnits="userSpaceOnUse">
<stop stop-color="#C2DCF9"/>
<stop offset="1" stop-color="#E8D9F1"/>
</linearGradient>
</defs>
</svg>
