<svg width="46" height="44" viewBox="0 0 46 44" fill="none" xmlns="http://www.w3.org/2000/svg">
<path d="M45.1666 22C45.1666 33.8602 35.2564 43.5 22.9999 43.5C10.7434 43.5 0.833252 33.8602 0.833252 22C0.833252 10.1398 10.7434 0.5 22.9999 0.5C35.2564 0.5 45.1666 10.1398 45.1666 22Z" stroke="white"/>
<g clip-path="url(#clip0)">
<path d="M17.8632 9.55859H27.6993C31.9558 9.55859 35.396 12.9629 35.396 17.1468V26.8527C35.396 31.0367 31.9558 34.4409 27.6993 34.4409H17.8632C13.6068 34.4409 10.1665 31.0367 10.1665 26.8527V17.1468C10.1665 12.9629 13.6068 9.55859 17.8632 9.55859ZM27.6993 33.0145C31.1331 33.0145 33.9369 30.2572 33.9369 26.8527V17.1468C33.9369 13.7424 31.1331 10.9851 27.6993 10.9851H17.8632C14.4294 10.9851 11.6255 13.7424 11.6255 17.1468V26.8527C11.6255 30.2572 14.4294 33.0145 17.8632 33.0145H27.6993ZM16.7239 21.9998C16.7239 18.7088 19.4298 16.0292 22.7813 16.0292C26.1327 16.0292 28.8386 18.7088 28.8386 21.9998C28.8386 25.2908 26.1327 27.9704 22.7813 27.9704C19.4298 27.9704 16.7239 25.2908 16.7239 21.9998ZM18.1829 21.9998C18.1829 24.5113 20.2524 26.5439 22.7813 26.5439C25.3101 26.5439 27.3796 24.5113 27.3796 21.9998C27.3796 19.4865 25.31 17.4557 22.7813 17.4557C20.2525 17.4557 18.1829 19.4865 18.1829 21.9998ZM30.2042 15.0439C30.2042 15.2377 30.0432 15.4061 29.8304 15.4061C29.6177 15.4061 29.4567 15.2377 29.4567 15.0439C29.4567 14.8501 29.6177 14.6817 29.8304 14.6817C30.0431 14.6817 30.2042 14.8501 30.2042 15.0439Z" fill="#1D1D1F" stroke="white"/>
</g>
<defs>
<clipPath id="clip0">
<rect width="26.6667" height="25.8824" fill="white" transform="translate(9.6665 9.05859)"/>
</clipPath>
</defs>
</svg>
