<svg width="200" height="71" viewBox="0 0 200 71" fill="none" xmlns="http://www.w3.org/2000/svg">
<path d="M164.24 43.776V44.592H162.544V49.808C162.544 50.0853 162.549 50.2827 162.56 50.4C162.571 50.5067 162.603 50.64 162.656 50.8C162.72 50.9493 162.827 51.0507 162.976 51.104C163.125 51.1573 163.328 51.184 163.584 51.184C163.733 51.184 163.952 51.168 164.24 51.136V52C163.909 52.0427 163.616 52.064 163.36 52.064C162.368 52.064 161.797 51.7493 161.648 51.12C161.584 50.8533 161.552 50.2507 161.552 49.312V44.592H160.096V43.776H161.552V41.264H162.544V43.776H164.24ZM170.382 43.648V44.672C170.34 44.672 170.286 44.672 170.222 44.672C170.169 44.6613 170.132 44.656 170.11 44.656C169.492 44.656 168.937 44.8373 168.446 45.2C167.966 45.552 167.646 46.0213 167.486 46.608C167.358 47.1093 167.294 47.7867 167.294 48.64V52H166.302V43.776H167.246V45.744C167.598 44.9867 168.004 44.4533 168.462 44.144C168.921 43.824 169.561 43.6587 170.382 43.648ZM178.917 51.184V51.952C178.672 52.0373 178.405 52.08 178.117 52.08C177.68 52.08 177.392 51.9467 177.253 51.68C177.115 51.4133 177.045 51.0453 177.045 50.576C176.352 51.6747 175.317 52.224 173.941 52.224C173.099 52.224 172.437 52.0213 171.957 51.616C171.488 51.2107 171.253 50.6453 171.253 49.92C171.253 48.4373 172.272 47.5893 174.309 47.376C174.416 47.3653 174.565 47.3547 174.757 47.344C174.949 47.3227 175.088 47.3067 175.173 47.296C175.269 47.2853 175.387 47.2747 175.525 47.264C175.675 47.2427 175.781 47.2267 175.845 47.216C175.92 47.2053 176.005 47.1893 176.101 47.168C176.208 47.1467 176.288 47.1253 176.341 47.104C176.405 47.0827 176.469 47.0613 176.533 47.04C176.597 47.008 176.656 46.976 176.709 46.944C176.901 46.816 176.997 46.5547 176.997 46.16C176.997 45.5093 176.816 45.0507 176.453 44.784C176.091 44.5173 175.557 44.384 174.853 44.384C174.16 44.384 173.627 44.544 173.253 44.864C172.891 45.1733 172.677 45.6587 172.613 46.32H171.653C171.696 45.4347 172.005 44.752 172.581 44.272C173.157 43.792 173.952 43.552 174.965 43.552C175.904 43.552 176.64 43.7547 177.173 44.16C177.717 44.5653 177.989 45.152 177.989 45.92V50.4C177.989 50.6133 177.995 50.768 178.005 50.864C178.016 50.9493 178.059 51.0347 178.133 51.12C178.219 51.1947 178.352 51.232 178.533 51.232C178.672 51.232 178.8 51.216 178.917 51.184ZM176.997 47.52C176.901 47.6267 176.741 47.7173 176.517 47.792C176.304 47.856 176.107 47.904 175.925 47.936C175.744 47.968 175.435 48.0107 174.997 48.064C174.891 48.0747 174.811 48.0853 174.757 48.096C174.416 48.1387 174.133 48.1867 173.909 48.24C173.696 48.2933 173.445 48.384 173.157 48.512C172.88 48.6293 172.667 48.8 172.517 49.024C172.379 49.2373 172.309 49.504 172.309 49.824C172.309 50.304 172.48 50.688 172.821 50.976C173.163 51.2533 173.621 51.392 174.197 51.392C174.976 51.392 175.637 51.1627 176.181 50.704C176.725 50.2347 176.997 49.6213 176.997 48.864V47.52ZM186.862 43.776L183.838 52H182.75L179.582 43.776H180.654L182.574 48.784C182.723 49.1893 182.974 49.9307 183.326 51.008C183.646 49.984 183.897 49.216 184.078 48.704L185.854 43.776H186.862ZM195.212 49.296C195.031 50.224 194.636 50.9547 194.028 51.488C193.42 52.0107 192.642 52.272 191.692 52.272C190.551 52.272 189.634 51.8827 188.94 51.104C188.258 50.3253 187.916 49.2853 187.916 47.984C187.916 46.6827 188.263 45.6213 188.956 44.8C189.66 43.968 190.567 43.552 191.676 43.552C192.839 43.552 193.73 43.9627 194.348 44.784C194.978 45.6053 195.292 46.624 195.292 47.84V48.128H188.94C188.94 49.0773 189.17 49.872 189.628 50.512C190.098 51.1413 190.796 51.456 191.724 51.456C193.079 51.456 193.916 50.736 194.236 49.296H195.212ZM194.284 47.312C194.231 46.3947 193.97 45.68 193.5 45.168C193.031 44.6453 192.412 44.384 191.644 44.384C190.812 44.384 190.178 44.656 189.74 45.2C189.314 45.744 189.047 46.448 188.94 47.312H194.284ZM198.165 40.608V52H197.173V40.608H198.165Z" fill="white"/>
<path d="M0.191156 11.976L10.0192 49H18.2872L24.5272 23.728L30.8712 49H38.9832L48.9672 11.976H40.9592L34.8232 37.456L28.4272 11.976H20.7832L14.2832 37.144L8.35516 11.976H0.191156ZM75.2389 40.68H68.1669C67.0749 43.384 65.4109 44.58 62.7069 44.58C58.7549 44.58 56.5189 42.084 56.4149 37.456H75.6549V36.728C75.6549 27.316 70.5069 21.388 62.3949 21.388C54.5949 21.388 48.9269 27.42 48.9269 35.74C48.9269 44.164 54.3869 49.78 62.6549 49.78C68.7389 49.78 73.5749 46.504 75.2389 40.68ZM68.1669 32.776H56.4149C56.8309 29.032 59.1189 26.744 62.3949 26.744C66.0869 26.744 67.8549 29.5 68.1669 32.776Z" fill="#CEBAC7"/>
<path d="M112.586 30.176V49H110.246L109.622 43.748L109.518 42.084C108.409 44.5453 106.71 46.4693 104.422 47.856C102.169 49.208 99.5343 49.884 96.5183 49.884C91.353 49.884 87.1583 48.1333 83.9343 44.632C80.7103 41.096 79.0983 36.5027 79.0983 30.852C79.0983 25.028 80.7103 20.296 83.9343 16.656C87.193 13.016 91.4396 11.196 96.6743 11.196C100.661 11.196 104.076 12.288 106.918 14.472C109.761 16.6213 111.477 19.6027 112.066 23.416H108.686C108.166 20.5733 106.78 18.3373 104.526 16.708C102.308 15.044 99.7076 14.212 96.7263 14.212C92.4276 14.212 88.9956 15.72 86.4303 18.736C83.865 21.752 82.5823 25.7733 82.5823 30.8C82.5823 35.688 83.865 39.6053 86.4303 42.552C89.0303 45.464 92.445 46.92 96.6743 46.92C99.9676 46.92 102.758 45.9667 105.046 44.06C107.369 42.1187 108.773 39.5533 109.258 36.364C109.397 35.3933 109.466 34.3013 109.466 33.088H96.7783V30.176H112.586ZM140.989 40.212C140.4 43.228 139.117 45.6027 137.141 47.336C135.165 49.0347 132.635 49.884 129.549 49.884C125.84 49.884 122.859 48.6187 120.605 46.088C118.387 43.5573 117.277 40.1773 117.277 35.948C117.277 31.7187 118.404 28.2693 120.657 25.6C122.945 22.896 125.892 21.544 129.497 21.544C133.276 21.544 136.171 22.8787 138.181 25.548C140.227 28.2173 141.249 31.528 141.249 35.48V36.416H120.605C120.605 39.5013 121.351 42.084 122.841 44.164C124.367 46.2093 126.637 47.232 129.653 47.232C134.056 47.232 136.777 44.892 137.817 40.212H140.989ZM137.973 33.764C137.8 30.7827 136.951 28.46 135.425 26.796C133.9 25.0973 131.889 24.248 129.393 24.248C126.689 24.248 124.627 25.132 123.205 26.9C121.819 28.668 120.952 30.956 120.605 33.764H137.973ZM156.358 22.272V24.924H150.846V41.876C150.846 42.7773 150.863 43.4187 150.898 43.8C150.933 44.1467 151.037 44.58 151.21 45.1C151.418 45.5853 151.765 45.9147 152.25 46.088C152.735 46.2613 153.394 46.348 154.226 46.348C154.711 46.348 155.422 46.296 156.358 46.192V49C155.283 49.1387 154.33 49.208 153.498 49.208C150.274 49.208 148.419 48.1853 147.934 46.14C147.726 45.2733 147.622 43.3147 147.622 40.264V24.924H142.89V22.272H147.622V14.108H150.846V22.272H156.358Z" fill="white"/>
</svg>

