<svg width="622" height="57" viewBox="0 0 622 57" fill="none" xmlns="http://www.w3.org/2000/svg">
<line x1="12.9529" y1="26.02" x2="620.953" y2="26.02" stroke="url(#paint0_linear)" stroke-linecap="round" stroke-dasharray="2 4"/>
<g filter="url(#filter0_d)">
<ellipse rx="23.8973" ry="23.7698" transform="matrix(1 0 0 -1 28.8284 24.4607)" fill="#2196F3"/>
</g>
<ellipse rx="12.567" ry="12.5" transform="matrix(1 0 0 -1 219.664 24.7303)" fill="#2196F3"/>
<ellipse rx="12.5671" ry="12.5" transform="matrix(1 0 0 -1 413.829 24.7303)" fill="#2196F3"/>
<ellipse rx="12.5671" ry="12.5" transform="matrix(1 0 0 -1 607.995 24.7303)" fill="#2196F3"/>
<path d="M31.0112 30.6909H28.189V19.812L24.8198 20.8569V18.562L30.7085 16.4526H31.0112V30.6909Z" fill="white"/>
<path d="M222.911 29.6909H216.088V28.3374L219.308 24.9058C219.75 24.4227 220.076 24.0011 220.286 23.6411C220.5 23.2811 220.607 22.9393 220.607 22.6157C220.607 22.1737 220.495 21.8273 220.272 21.5767C220.049 21.3215 219.73 21.1938 219.315 21.1938C218.868 21.1938 218.515 21.3488 218.255 21.6587C218 21.964 217.873 22.3674 217.873 22.8687H215.89C215.89 22.2625 216.034 21.7088 216.321 21.2075C216.612 20.7062 217.023 20.3143 217.551 20.0317C218.08 19.7446 218.679 19.6011 219.349 19.6011C220.375 19.6011 221.17 19.8472 221.735 20.3394C222.305 20.8315 222.589 21.5265 222.589 22.4243C222.589 22.9165 222.462 23.4178 222.207 23.9282C221.951 24.4386 221.514 25.0334 220.894 25.7124L218.631 28.0981H222.911V29.6909Z" fill="#272B33"/>
<path d="M412.098 23.8394H413.151C413.652 23.8394 414.024 23.714 414.265 23.4634C414.507 23.2127 414.627 22.88 414.627 22.4653C414.627 22.0643 414.507 21.7521 414.265 21.5288C414.028 21.3055 413.7 21.1938 413.281 21.1938C412.903 21.1938 412.586 21.2987 412.331 21.5083C412.075 21.7134 411.948 21.9823 411.948 22.3149H409.972C409.972 21.7954 410.111 21.3306 410.389 20.9204C410.672 20.5057 411.064 20.1821 411.565 19.9497C412.071 19.7173 412.627 19.6011 413.233 19.6011C414.286 19.6011 415.111 19.854 415.708 20.3599C416.305 20.8612 416.603 21.5539 416.603 22.438C416.603 22.8937 416.464 23.313 416.186 23.6958C415.908 24.0786 415.543 24.3726 415.092 24.5776C415.653 24.7782 416.07 25.0789 416.343 25.48C416.621 25.881 416.76 26.355 416.76 26.9019C416.76 27.786 416.437 28.4946 415.79 29.0278C415.147 29.561 414.295 29.8276 413.233 29.8276C412.239 29.8276 411.426 29.5656 410.792 29.0415C410.164 28.5174 409.849 27.8247 409.849 26.9634H411.825C411.825 27.3371 411.964 27.6424 412.242 27.8794C412.524 28.1164 412.871 28.2349 413.281 28.2349C413.75 28.2349 414.117 28.1118 414.381 27.8657C414.65 27.6151 414.785 27.2847 414.785 26.8745C414.785 25.881 414.238 25.3843 413.144 25.3843H412.098V23.8394Z" fill="#272B33"/>
<path d="M610.933 25.9448H612.061V27.5376H610.933V29.6909H608.958V27.5376H604.876L604.788 26.2935L608.937 19.7378H610.933V25.9448ZM606.756 25.9448H608.958V22.4312L608.828 22.6567L606.756 25.9448Z" fill="#272B33"/>
<defs>
<filter id="filter0_d" x="0.931152" y="0.690918" width="55.7946" height="55.5396" filterUnits="userSpaceOnUse" color-interpolation-filters="sRGB">
<feFlood flood-opacity="0" result="BackgroundImageFix"/>
<feColorMatrix in="SourceAlpha" type="matrix" values="0 0 0 0 0 0 0 0 0 0 0 0 0 0 0 0 0 0 127 0"/>
<feOffset dy="4"/>
<feGaussianBlur stdDeviation="2"/>
<feColorMatrix type="matrix" values="0 0 0 0 0 0 0 0 0 0 0 0 0 0 0 0 0 0 0.25 0"/>
<feBlend mode="normal" in2="BackgroundImageFix" result="effect1_dropShadow"/>
<feBlend mode="normal" in="SourceGraphic" in2="effect1_dropShadow" result="shape"/>
</filter>
<linearGradient id="paint0_linear" x1="316.953" y1="26.52" x2="316.953" y2="27.52" gradientUnits="userSpaceOnUse">
<stop stop-color="#0879BF"/>
<stop offset="1" stop-color="#4769C4"/>
</linearGradient>
</defs>
</svg>
