<svg width="46" height="44" viewBox="0 0 46 44" fill="none" xmlns="http://www.w3.org/2000/svg">
<path d="M45.4998 22C45.4998 33.8602 35.5897 43.5 23.3332 43.5C11.0767 43.5 1.1665 33.8602 1.1665 22C1.1665 10.1398 11.0767 0.5 23.3332 0.5C35.5897 0.5 45.4998 10.1398 45.4998 22Z" stroke="white"/>
<g clip-path="url(#clip0)">
<path d="M39.5009 15.032L39.5017 15.0344C39.8386 16.1262 40.0089 17.8542 40.0914 19.3509C40.1321 20.0906 40.1508 20.7594 40.1593 21.2433C40.1636 21.4851 40.1653 21.6804 40.1659 21.8149C40.1662 21.8821 40.1663 21.9341 40.1662 21.9692L40.1662 22.0087L40.1661 22.0185L40.1661 22.0208L40.1661 22.0214L40.1661 22.0214V22.0243V22.0244V22.0249L40.1661 22.0272L40.1661 22.037L40.1659 22.0764C40.1658 22.1113 40.1654 22.1631 40.1648 22.2301C40.1635 22.364 40.1608 22.5585 40.1555 22.7992C40.1449 23.281 40.1236 23.9471 40.0811 24.6842C39.9953 26.1739 39.8254 27.8984 39.5009 28.9937C39.1741 30.0681 38.2035 30.9517 36.927 31.257C36.3207 31.3984 35.2194 31.511 33.8716 31.5969C32.5356 31.682 30.9939 31.7389 29.5295 31.7769C28.0659 31.8149 26.6831 31.8339 25.666 31.8434C25.1575 31.8481 24.7407 31.8505 24.451 31.8517C24.3062 31.8523 24.1932 31.8526 24.1165 31.8527L24.0292 31.8528L24.007 31.8529L24.0015 31.8529H24.0001H23.9998L23.9997 32.3529L23.9996 31.8529H23.9993H23.9979L23.9924 31.8529L23.9702 31.8528L23.8832 31.8527C23.8067 31.8525 23.694 31.8522 23.5495 31.8516C23.2606 31.8504 22.8447 31.8479 22.3374 31.843C21.3224 31.8331 19.9423 31.8134 18.4805 31.7739C17.0179 31.7344 15.4773 31.6752 14.1403 31.5867C12.7908 31.4975 11.6863 31.3804 11.0743 31.2333L11.0737 31.2332C9.79608 30.928 8.82492 30.0437 8.49816 28.9685C8.17391 27.8863 8.00389 26.1626 7.91799 24.669C7.87551 23.9304 7.85425 23.262 7.84361 22.7783C7.8383 22.5366 7.83565 22.3413 7.83432 22.2067C7.83366 22.1394 7.83333 22.0874 7.83317 22.0523L7.83303 22.0127L7.83301 22.0029L7.83301 22.0005L7.83301 22V21.9999V21.9999V21.9998L7.83301 21.9993L7.83301 21.997L7.83303 21.9872L7.83317 21.9478C7.83333 21.9129 7.83366 21.8611 7.83432 21.7941C7.83565 21.6602 7.8383 21.4657 7.84361 21.225C7.85424 20.7431 7.87551 20.0771 7.91799 19.3399C8.00383 17.8502 8.17377 16.1259 8.49837 15.0306C8.82519 13.9549 9.82459 13.0472 11.0732 12.7425C11.6798 12.6012 12.7805 12.4887 14.1273 12.403C15.4633 12.3179 17.0051 12.261 18.4694 12.223C19.933 12.185 21.3158 12.166 22.333 12.1565C22.8414 12.1517 23.2583 12.1493 23.5479 12.1482C23.6927 12.1476 23.8057 12.1473 23.8824 12.1471L23.9697 12.147L23.9919 12.147L23.9975 12.147L23.9989 12.147L23.9992 12.147L23.9993 11.647L23.9994 12.147L23.9997 12.147L24.0011 12.147L24.0066 12.147L24.0288 12.147L24.1161 12.1471C24.1928 12.1473 24.3058 12.1476 24.4506 12.1482C24.7402 12.1494 25.157 12.1519 25.6655 12.1568C26.6826 12.1667 28.0653 12.1865 29.5288 12.2259C30.9931 12.2654 32.5346 12.3246 33.8703 12.413C35.2189 12.5023 36.3192 12.6193 36.9237 12.7661L36.9255 12.7665C38.2033 13.0718 39.1749 13.9565 39.5009 15.032ZM20.1774 26.4334V27.2503L20.9049 26.8786L29.5812 22.4452L30.4526 21.9999L29.5812 21.5547L20.9049 17.1212L20.1774 16.7495V17.5665V26.4334Z" fill="white" stroke="white"/>
</g>
<defs>
<clipPath id="clip0">
<rect width="33.3333" height="20.7059" fill="white" transform="translate(7.33301 11.647)"/>
</clipPath>
</defs>
</svg>
